%TF.GenerationSoftware,KiCad,Pcbnew,8.0.5*%
%TF.CreationDate,2024-09-21T22:46:54-06:00*%
%TF.ProjectId,KiCad_MiniBadge_Learning,4b694361-645f-44d6-996e-694261646765,rev?*%
%TF.SameCoordinates,Original*%
%TF.FileFunction,Drillmap*%
%TF.FilePolarity,Positive*%
%FSLAX45Y45*%
G04 Gerber Fmt 4.5, Leading zero omitted, Abs format (unit mm)*
G04 Created by KiCad (PCBNEW 8.0.5) date 2024-09-21 22:46:54*
%MOMM*%
%LPD*%
G01*
G04 APERTURE LIST*
%ADD10C,0.022970*%
%ADD11C,0.200000*%
G04 APERTURE END LIST*
D10*
X13915380Y-8860500D02*
X13912554Y-10634388D01*
X14044188Y-10762000D02*
X15825468Y-10762286D01*
X15819192Y-8729380D02*
X14042992Y-8728866D01*
X15953080Y-10630652D02*
X15950826Y-8856992D01*
X13915380Y-8860500D02*
G75*
G02*
X14042992Y-8728866I131697J0D01*
G01*
X14044188Y-10762000D02*
G75*
G02*
X13912554Y-10634388I0J131698D01*
G01*
X15819192Y-8729380D02*
G75*
G02*
X15950826Y-8856992I-2J-131700D01*
G01*
X15953080Y-10630652D02*
G75*
G02*
X15825468Y-10762286I-131700J2D01*
G01*
D11*
X14172182Y-11074918D02*
X14172182Y-10874918D01*
X14172182Y-10874918D02*
X14219801Y-10874918D01*
X14219801Y-10874918D02*
X14248373Y-10884442D01*
X14248373Y-10884442D02*
X14267420Y-10903490D01*
X14267420Y-10903490D02*
X14276944Y-10922537D01*
X14276944Y-10922537D02*
X14286468Y-10960632D01*
X14286468Y-10960632D02*
X14286468Y-10989204D01*
X14286468Y-10989204D02*
X14276944Y-11027299D01*
X14276944Y-11027299D02*
X14267420Y-11046347D01*
X14267420Y-11046347D02*
X14248373Y-11065394D01*
X14248373Y-11065394D02*
X14219801Y-11074918D01*
X14219801Y-11074918D02*
X14172182Y-11074918D01*
X14372182Y-11074918D02*
X14372182Y-10941585D01*
X14372182Y-10979680D02*
X14381706Y-10960632D01*
X14381706Y-10960632D02*
X14391230Y-10951109D01*
X14391230Y-10951109D02*
X14410278Y-10941585D01*
X14410278Y-10941585D02*
X14429325Y-10941585D01*
X14495992Y-11074918D02*
X14495992Y-10941585D01*
X14495992Y-10874918D02*
X14486468Y-10884442D01*
X14486468Y-10884442D02*
X14495992Y-10893966D01*
X14495992Y-10893966D02*
X14505516Y-10884442D01*
X14505516Y-10884442D02*
X14495992Y-10874918D01*
X14495992Y-10874918D02*
X14495992Y-10893966D01*
X14619801Y-11074918D02*
X14600754Y-11065394D01*
X14600754Y-11065394D02*
X14591230Y-11046347D01*
X14591230Y-11046347D02*
X14591230Y-10874918D01*
X14724563Y-11074918D02*
X14705516Y-11065394D01*
X14705516Y-11065394D02*
X14695992Y-11046347D01*
X14695992Y-11046347D02*
X14695992Y-10874918D01*
X14953135Y-11074918D02*
X14953135Y-10874918D01*
X14953135Y-10874918D02*
X15019801Y-11017775D01*
X15019801Y-11017775D02*
X15086468Y-10874918D01*
X15086468Y-10874918D02*
X15086468Y-11074918D01*
X15267420Y-11074918D02*
X15267420Y-10970156D01*
X15267420Y-10970156D02*
X15257897Y-10951109D01*
X15257897Y-10951109D02*
X15238849Y-10941585D01*
X15238849Y-10941585D02*
X15200754Y-10941585D01*
X15200754Y-10941585D02*
X15181706Y-10951109D01*
X15267420Y-11065394D02*
X15248373Y-11074918D01*
X15248373Y-11074918D02*
X15200754Y-11074918D01*
X15200754Y-11074918D02*
X15181706Y-11065394D01*
X15181706Y-11065394D02*
X15172182Y-11046347D01*
X15172182Y-11046347D02*
X15172182Y-11027299D01*
X15172182Y-11027299D02*
X15181706Y-11008252D01*
X15181706Y-11008252D02*
X15200754Y-10998728D01*
X15200754Y-10998728D02*
X15248373Y-10998728D01*
X15248373Y-10998728D02*
X15267420Y-10989204D01*
X15362659Y-10941585D02*
X15362659Y-11141585D01*
X15362659Y-10951109D02*
X15381706Y-10941585D01*
X15381706Y-10941585D02*
X15419801Y-10941585D01*
X15419801Y-10941585D02*
X15438849Y-10951109D01*
X15438849Y-10951109D02*
X15448373Y-10960632D01*
X15448373Y-10960632D02*
X15457897Y-10979680D01*
X15457897Y-10979680D02*
X15457897Y-11036823D01*
X15457897Y-11036823D02*
X15448373Y-11055871D01*
X15448373Y-11055871D02*
X15438849Y-11065394D01*
X15438849Y-11065394D02*
X15419801Y-11074918D01*
X15419801Y-11074918D02*
X15381706Y-11074918D01*
X15381706Y-11074918D02*
X15362659Y-11065394D01*
X15543611Y-11055871D02*
X15553135Y-11065394D01*
X15553135Y-11065394D02*
X15543611Y-11074918D01*
X15543611Y-11074918D02*
X15534087Y-11065394D01*
X15534087Y-11065394D02*
X15543611Y-11055871D01*
X15543611Y-11055871D02*
X15543611Y-11074918D01*
X15543611Y-10951109D02*
X15553135Y-10960632D01*
X15553135Y-10960632D02*
X15543611Y-10970156D01*
X15543611Y-10970156D02*
X15534087Y-10960632D01*
X15534087Y-10960632D02*
X15543611Y-10951109D01*
X15543611Y-10951109D02*
X15543611Y-10970156D01*
M02*
