%TF.GenerationSoftware,KiCad,Pcbnew,8.0.5*%
%TF.CreationDate,2024-09-21T22:46:54-06:00*%
%TF.ProjectId,KiCad_MiniBadge_Learning,4b694361-645f-44d6-996e-694261646765,rev?*%
%TF.SameCoordinates,Original*%
%TF.FileFunction,Drillmap*%
%TF.FilePolarity,Positive*%
%FSLAX45Y45*%
G04 Gerber Fmt 4.5, Leading zero omitted, Abs format (unit mm)*
G04 Created by KiCad (PCBNEW 8.0.5) date 2024-09-21 22:46:54*
%MOMM*%
%LPD*%
G01*
G04 APERTURE LIST*
%ADD10C,0.022970*%
%ADD11C,0.200000*%
%ADD12C,0.100000*%
%ADD13C,0.101600*%
G04 APERTURE END LIST*
D10*
X13915380Y-8860500D02*
X13912554Y-10634388D01*
X14044188Y-10762000D02*
X15825468Y-10762286D01*
X15819192Y-8729380D02*
X14042992Y-8728866D01*
X15953080Y-10630652D02*
X15950826Y-8856992D01*
X13915380Y-8860500D02*
G75*
G02*
X14042992Y-8728866I131697J0D01*
G01*
X14044188Y-10762000D02*
G75*
G02*
X13912554Y-10634388I0J131698D01*
G01*
X15819192Y-8729380D02*
G75*
G02*
X15950826Y-8856992I-2J-131700D01*
G01*
X15953080Y-10630652D02*
G75*
G02*
X15825468Y-10762286I-131700J2D01*
G01*
D11*
D12*
X14055000Y-9975000D02*
X14085000Y-10005000D01*
X14085000Y-9975000D02*
X14055000Y-10005000D01*
X14055000Y-10270000D02*
X14085000Y-10300000D01*
X14085000Y-10270000D02*
X14055000Y-10300000D01*
X14060000Y-9125000D02*
X14090000Y-9155000D01*
X14090000Y-9125000D02*
X14060000Y-9155000D01*
X14150000Y-10505000D02*
X14180000Y-10535000D01*
X14180000Y-10505000D02*
X14150000Y-10535000D01*
X14165000Y-8950000D02*
X14195000Y-8980000D01*
X14195000Y-8950000D02*
X14165000Y-8980000D01*
X14270000Y-10275000D02*
X14300000Y-10305000D01*
X14300000Y-10275000D02*
X14270000Y-10305000D01*
X14455000Y-8800000D02*
X14485000Y-8830000D01*
X14485000Y-8800000D02*
X14455000Y-8830000D01*
X14475000Y-10650000D02*
X14505000Y-10680000D01*
X14505000Y-10650000D02*
X14475000Y-10680000D01*
X14565000Y-10440000D02*
X14595000Y-10470000D01*
X14595000Y-10440000D02*
X14565000Y-10470000D01*
X14575000Y-10105000D02*
X14605000Y-10135000D01*
X14605000Y-10105000D02*
X14575000Y-10135000D01*
X14580000Y-10565000D02*
X14610000Y-10595000D01*
X14610000Y-10565000D02*
X14580000Y-10595000D01*
X14630000Y-8870000D02*
X14660000Y-8900000D01*
X14660000Y-8870000D02*
X14630000Y-8900000D01*
X14730000Y-10580000D02*
X14760000Y-10610000D01*
X14760000Y-10580000D02*
X14730000Y-10610000D01*
X14775000Y-8995000D02*
X14805000Y-9025000D01*
X14805000Y-8995000D02*
X14775000Y-9025000D01*
X14955000Y-10295000D02*
X14985000Y-10325000D01*
X14985000Y-10295000D02*
X14955000Y-10325000D01*
X14995000Y-10570000D02*
X15025000Y-10600000D01*
X15025000Y-10570000D02*
X14995000Y-10600000D01*
X15130000Y-9380000D02*
X15160000Y-9410000D01*
X15160000Y-9380000D02*
X15130000Y-9410000D01*
X15140000Y-10625000D02*
X15170000Y-10655000D01*
X15170000Y-10625000D02*
X15140000Y-10655000D01*
X15375000Y-10610000D02*
X15405000Y-10640000D01*
X15405000Y-10610000D02*
X15375000Y-10640000D01*
X15380000Y-8955000D02*
X15410000Y-8985000D01*
X15410000Y-8955000D02*
X15380000Y-8985000D01*
X15690000Y-8995000D02*
X15720000Y-9025000D01*
X15720000Y-8995000D02*
X15690000Y-9025000D01*
X15695000Y-10505000D02*
X15725000Y-10535000D01*
X15725000Y-10505000D02*
X15695000Y-10535000D01*
X15715000Y-9200000D02*
X15745000Y-9230000D01*
X15745000Y-9200000D02*
X15715000Y-9230000D01*
X15775000Y-9440000D02*
X15805000Y-9470000D01*
X15805000Y-9440000D02*
X15775000Y-9470000D01*
X15855000Y-9015000D02*
X15885000Y-9045000D01*
X15885000Y-9015000D02*
X15855000Y-9045000D01*
X15860000Y-10345000D02*
X15890000Y-10375000D01*
X15890000Y-10345000D02*
X15860000Y-10375000D01*
X14228500Y-10135000D02*
G75*
G02*
X14138500Y-10135000I-45000J0D01*
G01*
X14138500Y-10135000D02*
G75*
G02*
X14228500Y-10135000I45000J0D01*
G01*
X14482500Y-10135000D02*
G75*
G02*
X14392500Y-10135000I-45000J0D01*
G01*
X14392500Y-10135000D02*
G75*
G02*
X14482500Y-10135000I45000J0D01*
G01*
D13*
X14046500Y-8809700D02*
X14046500Y-8911300D01*
X13995700Y-8860500D02*
X14097300Y-8860500D01*
X14046500Y-10587700D02*
X14046500Y-10689300D01*
X13995700Y-10638500D02*
X14097300Y-10638500D01*
X14300500Y-8809700D02*
X14300500Y-8911300D01*
X14249700Y-8860500D02*
X14351300Y-8860500D01*
X14300500Y-10587700D02*
X14300500Y-10689300D01*
X14249700Y-10638500D02*
X14351300Y-10638500D01*
X15570500Y-8809700D02*
X15570500Y-8911300D01*
X15519700Y-8860500D02*
X15621300Y-8860500D01*
X15570500Y-10587700D02*
X15570500Y-10689300D01*
X15519700Y-10638500D02*
X15621300Y-10638500D01*
X15824500Y-8809700D02*
X15824500Y-8911300D01*
X15773700Y-8860500D02*
X15875300Y-8860500D01*
X15824500Y-10587700D02*
X15824500Y-10689300D01*
X15773700Y-10638500D02*
X15875300Y-10638500D01*
D11*
X14172182Y-11074918D02*
X14172182Y-10874918D01*
X14172182Y-10874918D02*
X14219801Y-10874918D01*
X14219801Y-10874918D02*
X14248373Y-10884442D01*
X14248373Y-10884442D02*
X14267420Y-10903490D01*
X14267420Y-10903490D02*
X14276944Y-10922537D01*
X14276944Y-10922537D02*
X14286468Y-10960632D01*
X14286468Y-10960632D02*
X14286468Y-10989204D01*
X14286468Y-10989204D02*
X14276944Y-11027299D01*
X14276944Y-11027299D02*
X14267420Y-11046347D01*
X14267420Y-11046347D02*
X14248373Y-11065394D01*
X14248373Y-11065394D02*
X14219801Y-11074918D01*
X14219801Y-11074918D02*
X14172182Y-11074918D01*
X14372182Y-11074918D02*
X14372182Y-10941585D01*
X14372182Y-10979680D02*
X14381706Y-10960632D01*
X14381706Y-10960632D02*
X14391230Y-10951109D01*
X14391230Y-10951109D02*
X14410278Y-10941585D01*
X14410278Y-10941585D02*
X14429325Y-10941585D01*
X14495992Y-11074918D02*
X14495992Y-10941585D01*
X14495992Y-10874918D02*
X14486468Y-10884442D01*
X14486468Y-10884442D02*
X14495992Y-10893966D01*
X14495992Y-10893966D02*
X14505516Y-10884442D01*
X14505516Y-10884442D02*
X14495992Y-10874918D01*
X14495992Y-10874918D02*
X14495992Y-10893966D01*
X14619801Y-11074918D02*
X14600754Y-11065394D01*
X14600754Y-11065394D02*
X14591230Y-11046347D01*
X14591230Y-11046347D02*
X14591230Y-10874918D01*
X14724563Y-11074918D02*
X14705516Y-11065394D01*
X14705516Y-11065394D02*
X14695992Y-11046347D01*
X14695992Y-11046347D02*
X14695992Y-10874918D01*
X14953135Y-11074918D02*
X14953135Y-10874918D01*
X14953135Y-10874918D02*
X15019801Y-11017775D01*
X15019801Y-11017775D02*
X15086468Y-10874918D01*
X15086468Y-10874918D02*
X15086468Y-11074918D01*
X15267420Y-11074918D02*
X15267420Y-10970156D01*
X15267420Y-10970156D02*
X15257897Y-10951109D01*
X15257897Y-10951109D02*
X15238849Y-10941585D01*
X15238849Y-10941585D02*
X15200754Y-10941585D01*
X15200754Y-10941585D02*
X15181706Y-10951109D01*
X15267420Y-11065394D02*
X15248373Y-11074918D01*
X15248373Y-11074918D02*
X15200754Y-11074918D01*
X15200754Y-11074918D02*
X15181706Y-11065394D01*
X15181706Y-11065394D02*
X15172182Y-11046347D01*
X15172182Y-11046347D02*
X15172182Y-11027299D01*
X15172182Y-11027299D02*
X15181706Y-11008252D01*
X15181706Y-11008252D02*
X15200754Y-10998728D01*
X15200754Y-10998728D02*
X15248373Y-10998728D01*
X15248373Y-10998728D02*
X15267420Y-10989204D01*
X15362659Y-10941585D02*
X15362659Y-11141585D01*
X15362659Y-10951109D02*
X15381706Y-10941585D01*
X15381706Y-10941585D02*
X15419801Y-10941585D01*
X15419801Y-10941585D02*
X15438849Y-10951109D01*
X15438849Y-10951109D02*
X15448373Y-10960632D01*
X15448373Y-10960632D02*
X15457897Y-10979680D01*
X15457897Y-10979680D02*
X15457897Y-11036823D01*
X15457897Y-11036823D02*
X15448373Y-11055871D01*
X15448373Y-11055871D02*
X15438849Y-11065394D01*
X15438849Y-11065394D02*
X15419801Y-11074918D01*
X15419801Y-11074918D02*
X15381706Y-11074918D01*
X15381706Y-11074918D02*
X15362659Y-11065394D01*
X15543611Y-11055871D02*
X15553135Y-11065394D01*
X15553135Y-11065394D02*
X15543611Y-11074918D01*
X15543611Y-11074918D02*
X15534087Y-11065394D01*
X15534087Y-11065394D02*
X15543611Y-11055871D01*
X15543611Y-11055871D02*
X15543611Y-11074918D01*
X15543611Y-10951109D02*
X15553135Y-10960632D01*
X15553135Y-10960632D02*
X15543611Y-10970156D01*
X15543611Y-10970156D02*
X15534087Y-10960632D01*
X15534087Y-10960632D02*
X15543611Y-10951109D01*
X15543611Y-10951109D02*
X15543611Y-10970156D01*
D12*
X13881406Y-11388434D02*
X13911406Y-11418434D01*
X13911406Y-11388434D02*
X13881406Y-11418434D01*
D11*
X14210278Y-11294918D02*
X14229325Y-11294918D01*
X14229325Y-11294918D02*
X14248373Y-11304442D01*
X14248373Y-11304442D02*
X14257897Y-11313966D01*
X14257897Y-11313966D02*
X14267420Y-11333013D01*
X14267420Y-11333013D02*
X14276944Y-11371109D01*
X14276944Y-11371109D02*
X14276944Y-11418728D01*
X14276944Y-11418728D02*
X14267420Y-11456823D01*
X14267420Y-11456823D02*
X14257897Y-11475870D01*
X14257897Y-11475870D02*
X14248373Y-11485394D01*
X14248373Y-11485394D02*
X14229325Y-11494918D01*
X14229325Y-11494918D02*
X14210278Y-11494918D01*
X14210278Y-11494918D02*
X14191230Y-11485394D01*
X14191230Y-11485394D02*
X14181706Y-11475870D01*
X14181706Y-11475870D02*
X14172182Y-11456823D01*
X14172182Y-11456823D02*
X14162659Y-11418728D01*
X14162659Y-11418728D02*
X14162659Y-11371109D01*
X14162659Y-11371109D02*
X14172182Y-11333013D01*
X14172182Y-11333013D02*
X14181706Y-11313966D01*
X14181706Y-11313966D02*
X14191230Y-11304442D01*
X14191230Y-11304442D02*
X14210278Y-11294918D01*
X14362659Y-11475870D02*
X14372182Y-11485394D01*
X14372182Y-11485394D02*
X14362659Y-11494918D01*
X14362659Y-11494918D02*
X14353135Y-11485394D01*
X14353135Y-11485394D02*
X14362659Y-11475870D01*
X14362659Y-11475870D02*
X14362659Y-11494918D01*
X14438849Y-11294918D02*
X14562659Y-11294918D01*
X14562659Y-11294918D02*
X14495992Y-11371109D01*
X14495992Y-11371109D02*
X14524563Y-11371109D01*
X14524563Y-11371109D02*
X14543611Y-11380632D01*
X14543611Y-11380632D02*
X14553135Y-11390156D01*
X14553135Y-11390156D02*
X14562659Y-11409204D01*
X14562659Y-11409204D02*
X14562659Y-11456823D01*
X14562659Y-11456823D02*
X14553135Y-11475870D01*
X14553135Y-11475870D02*
X14543611Y-11485394D01*
X14543611Y-11485394D02*
X14524563Y-11494918D01*
X14524563Y-11494918D02*
X14467420Y-11494918D01*
X14467420Y-11494918D02*
X14448373Y-11485394D01*
X14448373Y-11485394D02*
X14438849Y-11475870D01*
X14686468Y-11294918D02*
X14705516Y-11294918D01*
X14705516Y-11294918D02*
X14724563Y-11304442D01*
X14724563Y-11304442D02*
X14734087Y-11313966D01*
X14734087Y-11313966D02*
X14743611Y-11333013D01*
X14743611Y-11333013D02*
X14753135Y-11371109D01*
X14753135Y-11371109D02*
X14753135Y-11418728D01*
X14753135Y-11418728D02*
X14743611Y-11456823D01*
X14743611Y-11456823D02*
X14734087Y-11475870D01*
X14734087Y-11475870D02*
X14724563Y-11485394D01*
X14724563Y-11485394D02*
X14705516Y-11494918D01*
X14705516Y-11494918D02*
X14686468Y-11494918D01*
X14686468Y-11494918D02*
X14667420Y-11485394D01*
X14667420Y-11485394D02*
X14657897Y-11475870D01*
X14657897Y-11475870D02*
X14648373Y-11456823D01*
X14648373Y-11456823D02*
X14638849Y-11418728D01*
X14638849Y-11418728D02*
X14638849Y-11371109D01*
X14638849Y-11371109D02*
X14648373Y-11333013D01*
X14648373Y-11333013D02*
X14657897Y-11313966D01*
X14657897Y-11313966D02*
X14667420Y-11304442D01*
X14667420Y-11304442D02*
X14686468Y-11294918D01*
X14876944Y-11294918D02*
X14895992Y-11294918D01*
X14895992Y-11294918D02*
X14915040Y-11304442D01*
X14915040Y-11304442D02*
X14924563Y-11313966D01*
X14924563Y-11313966D02*
X14934087Y-11333013D01*
X14934087Y-11333013D02*
X14943611Y-11371109D01*
X14943611Y-11371109D02*
X14943611Y-11418728D01*
X14943611Y-11418728D02*
X14934087Y-11456823D01*
X14934087Y-11456823D02*
X14924563Y-11475870D01*
X14924563Y-11475870D02*
X14915040Y-11485394D01*
X14915040Y-11485394D02*
X14895992Y-11494918D01*
X14895992Y-11494918D02*
X14876944Y-11494918D01*
X14876944Y-11494918D02*
X14857897Y-11485394D01*
X14857897Y-11485394D02*
X14848373Y-11475870D01*
X14848373Y-11475870D02*
X14838849Y-11456823D01*
X14838849Y-11456823D02*
X14829325Y-11418728D01*
X14829325Y-11418728D02*
X14829325Y-11371109D01*
X14829325Y-11371109D02*
X14838849Y-11333013D01*
X14838849Y-11333013D02*
X14848373Y-11313966D01*
X14848373Y-11313966D02*
X14857897Y-11304442D01*
X14857897Y-11304442D02*
X14876944Y-11294918D01*
X15029325Y-11494918D02*
X15029325Y-11361585D01*
X15029325Y-11380632D02*
X15038849Y-11371109D01*
X15038849Y-11371109D02*
X15057897Y-11361585D01*
X15057897Y-11361585D02*
X15086468Y-11361585D01*
X15086468Y-11361585D02*
X15105516Y-11371109D01*
X15105516Y-11371109D02*
X15115040Y-11390156D01*
X15115040Y-11390156D02*
X15115040Y-11494918D01*
X15115040Y-11390156D02*
X15124563Y-11371109D01*
X15124563Y-11371109D02*
X15143611Y-11361585D01*
X15143611Y-11361585D02*
X15172182Y-11361585D01*
X15172182Y-11361585D02*
X15191230Y-11371109D01*
X15191230Y-11371109D02*
X15200754Y-11390156D01*
X15200754Y-11390156D02*
X15200754Y-11494918D01*
X15295992Y-11494918D02*
X15295992Y-11361585D01*
X15295992Y-11380632D02*
X15305516Y-11371109D01*
X15305516Y-11371109D02*
X15324563Y-11361585D01*
X15324563Y-11361585D02*
X15353135Y-11361585D01*
X15353135Y-11361585D02*
X15372182Y-11371109D01*
X15372182Y-11371109D02*
X15381706Y-11390156D01*
X15381706Y-11390156D02*
X15381706Y-11494918D01*
X15381706Y-11390156D02*
X15391230Y-11371109D01*
X15391230Y-11371109D02*
X15410278Y-11361585D01*
X15410278Y-11361585D02*
X15438849Y-11361585D01*
X15438849Y-11361585D02*
X15457897Y-11371109D01*
X15457897Y-11371109D02*
X15467421Y-11390156D01*
X15467421Y-11390156D02*
X15467421Y-11494918D01*
X15857897Y-11285394D02*
X15686468Y-11542537D01*
X16115040Y-11294918D02*
X16134087Y-11294918D01*
X16134087Y-11294918D02*
X16153135Y-11304442D01*
X16153135Y-11304442D02*
X16162659Y-11313966D01*
X16162659Y-11313966D02*
X16172183Y-11333013D01*
X16172183Y-11333013D02*
X16181706Y-11371109D01*
X16181706Y-11371109D02*
X16181706Y-11418728D01*
X16181706Y-11418728D02*
X16172183Y-11456823D01*
X16172183Y-11456823D02*
X16162659Y-11475870D01*
X16162659Y-11475870D02*
X16153135Y-11485394D01*
X16153135Y-11485394D02*
X16134087Y-11494918D01*
X16134087Y-11494918D02*
X16115040Y-11494918D01*
X16115040Y-11494918D02*
X16095992Y-11485394D01*
X16095992Y-11485394D02*
X16086468Y-11475870D01*
X16086468Y-11475870D02*
X16076944Y-11456823D01*
X16076944Y-11456823D02*
X16067421Y-11418728D01*
X16067421Y-11418728D02*
X16067421Y-11371109D01*
X16067421Y-11371109D02*
X16076944Y-11333013D01*
X16076944Y-11333013D02*
X16086468Y-11313966D01*
X16086468Y-11313966D02*
X16095992Y-11304442D01*
X16095992Y-11304442D02*
X16115040Y-11294918D01*
X16267421Y-11475870D02*
X16276944Y-11485394D01*
X16276944Y-11485394D02*
X16267421Y-11494918D01*
X16267421Y-11494918D02*
X16257897Y-11485394D01*
X16257897Y-11485394D02*
X16267421Y-11475870D01*
X16267421Y-11475870D02*
X16267421Y-11494918D01*
X16400754Y-11294918D02*
X16419802Y-11294918D01*
X16419802Y-11294918D02*
X16438849Y-11304442D01*
X16438849Y-11304442D02*
X16448373Y-11313966D01*
X16448373Y-11313966D02*
X16457897Y-11333013D01*
X16457897Y-11333013D02*
X16467421Y-11371109D01*
X16467421Y-11371109D02*
X16467421Y-11418728D01*
X16467421Y-11418728D02*
X16457897Y-11456823D01*
X16457897Y-11456823D02*
X16448373Y-11475870D01*
X16448373Y-11475870D02*
X16438849Y-11485394D01*
X16438849Y-11485394D02*
X16419802Y-11494918D01*
X16419802Y-11494918D02*
X16400754Y-11494918D01*
X16400754Y-11494918D02*
X16381706Y-11485394D01*
X16381706Y-11485394D02*
X16372183Y-11475870D01*
X16372183Y-11475870D02*
X16362659Y-11456823D01*
X16362659Y-11456823D02*
X16353135Y-11418728D01*
X16353135Y-11418728D02*
X16353135Y-11371109D01*
X16353135Y-11371109D02*
X16362659Y-11333013D01*
X16362659Y-11333013D02*
X16372183Y-11313966D01*
X16372183Y-11313966D02*
X16381706Y-11304442D01*
X16381706Y-11304442D02*
X16400754Y-11294918D01*
X16657897Y-11494918D02*
X16543611Y-11494918D01*
X16600754Y-11494918D02*
X16600754Y-11294918D01*
X16600754Y-11294918D02*
X16581706Y-11323490D01*
X16581706Y-11323490D02*
X16562659Y-11342537D01*
X16562659Y-11342537D02*
X16543611Y-11352061D01*
X16848373Y-11494918D02*
X16734087Y-11494918D01*
X16791230Y-11494918D02*
X16791230Y-11294918D01*
X16791230Y-11294918D02*
X16772183Y-11323490D01*
X16772183Y-11323490D02*
X16753135Y-11342537D01*
X16753135Y-11342537D02*
X16734087Y-11352061D01*
X16962659Y-11380632D02*
X16943611Y-11371109D01*
X16943611Y-11371109D02*
X16934087Y-11361585D01*
X16934087Y-11361585D02*
X16924564Y-11342537D01*
X16924564Y-11342537D02*
X16924564Y-11333013D01*
X16924564Y-11333013D02*
X16934087Y-11313966D01*
X16934087Y-11313966D02*
X16943611Y-11304442D01*
X16943611Y-11304442D02*
X16962659Y-11294918D01*
X16962659Y-11294918D02*
X17000754Y-11294918D01*
X17000754Y-11294918D02*
X17019802Y-11304442D01*
X17019802Y-11304442D02*
X17029326Y-11313966D01*
X17029326Y-11313966D02*
X17038849Y-11333013D01*
X17038849Y-11333013D02*
X17038849Y-11342537D01*
X17038849Y-11342537D02*
X17029326Y-11361585D01*
X17029326Y-11361585D02*
X17019802Y-11371109D01*
X17019802Y-11371109D02*
X17000754Y-11380632D01*
X17000754Y-11380632D02*
X16962659Y-11380632D01*
X16962659Y-11380632D02*
X16943611Y-11390156D01*
X16943611Y-11390156D02*
X16934087Y-11399680D01*
X16934087Y-11399680D02*
X16924564Y-11418728D01*
X16924564Y-11418728D02*
X16924564Y-11456823D01*
X16924564Y-11456823D02*
X16934087Y-11475870D01*
X16934087Y-11475870D02*
X16943611Y-11485394D01*
X16943611Y-11485394D02*
X16962659Y-11494918D01*
X16962659Y-11494918D02*
X17000754Y-11494918D01*
X17000754Y-11494918D02*
X17019802Y-11485394D01*
X17019802Y-11485394D02*
X17029326Y-11475870D01*
X17029326Y-11475870D02*
X17038849Y-11456823D01*
X17038849Y-11456823D02*
X17038849Y-11418728D01*
X17038849Y-11418728D02*
X17029326Y-11399680D01*
X17029326Y-11399680D02*
X17019802Y-11390156D01*
X17019802Y-11390156D02*
X17000754Y-11380632D01*
X17115040Y-11294918D02*
X17115040Y-11333013D01*
X17191230Y-11294918D02*
X17191230Y-11333013D01*
X17486469Y-11571109D02*
X17476945Y-11561585D01*
X17476945Y-11561585D02*
X17457897Y-11533013D01*
X17457897Y-11533013D02*
X17448373Y-11513966D01*
X17448373Y-11513966D02*
X17438849Y-11485394D01*
X17438849Y-11485394D02*
X17429326Y-11437775D01*
X17429326Y-11437775D02*
X17429326Y-11399680D01*
X17429326Y-11399680D02*
X17438849Y-11352061D01*
X17438849Y-11352061D02*
X17448373Y-11323490D01*
X17448373Y-11323490D02*
X17457897Y-11304442D01*
X17457897Y-11304442D02*
X17476945Y-11275870D01*
X17476945Y-11275870D02*
X17486469Y-11266347D01*
X17553135Y-11313966D02*
X17562659Y-11304442D01*
X17562659Y-11304442D02*
X17581707Y-11294918D01*
X17581707Y-11294918D02*
X17629326Y-11294918D01*
X17629326Y-11294918D02*
X17648373Y-11304442D01*
X17648373Y-11304442D02*
X17657897Y-11313966D01*
X17657897Y-11313966D02*
X17667421Y-11333013D01*
X17667421Y-11333013D02*
X17667421Y-11352061D01*
X17667421Y-11352061D02*
X17657897Y-11380632D01*
X17657897Y-11380632D02*
X17543611Y-11494918D01*
X17543611Y-11494918D02*
X17667421Y-11494918D01*
X17838849Y-11294918D02*
X17800754Y-11294918D01*
X17800754Y-11294918D02*
X17781707Y-11304442D01*
X17781707Y-11304442D02*
X17772183Y-11313966D01*
X17772183Y-11313966D02*
X17753135Y-11342537D01*
X17753135Y-11342537D02*
X17743611Y-11380632D01*
X17743611Y-11380632D02*
X17743611Y-11456823D01*
X17743611Y-11456823D02*
X17753135Y-11475870D01*
X17753135Y-11475870D02*
X17762659Y-11485394D01*
X17762659Y-11485394D02*
X17781707Y-11494918D01*
X17781707Y-11494918D02*
X17819802Y-11494918D01*
X17819802Y-11494918D02*
X17838849Y-11485394D01*
X17838849Y-11485394D02*
X17848373Y-11475870D01*
X17848373Y-11475870D02*
X17857897Y-11456823D01*
X17857897Y-11456823D02*
X17857897Y-11409204D01*
X17857897Y-11409204D02*
X17848373Y-11390156D01*
X17848373Y-11390156D02*
X17838849Y-11380632D01*
X17838849Y-11380632D02*
X17819802Y-11371109D01*
X17819802Y-11371109D02*
X17781707Y-11371109D01*
X17781707Y-11371109D02*
X17762659Y-11380632D01*
X17762659Y-11380632D02*
X17753135Y-11390156D01*
X17753135Y-11390156D02*
X17743611Y-11409204D01*
X18095992Y-11494918D02*
X18095992Y-11294918D01*
X18181707Y-11494918D02*
X18181707Y-11390156D01*
X18181707Y-11390156D02*
X18172183Y-11371109D01*
X18172183Y-11371109D02*
X18153135Y-11361585D01*
X18153135Y-11361585D02*
X18124564Y-11361585D01*
X18124564Y-11361585D02*
X18105516Y-11371109D01*
X18105516Y-11371109D02*
X18095992Y-11380632D01*
X18305516Y-11494918D02*
X18286469Y-11485394D01*
X18286469Y-11485394D02*
X18276945Y-11475870D01*
X18276945Y-11475870D02*
X18267421Y-11456823D01*
X18267421Y-11456823D02*
X18267421Y-11399680D01*
X18267421Y-11399680D02*
X18276945Y-11380632D01*
X18276945Y-11380632D02*
X18286469Y-11371109D01*
X18286469Y-11371109D02*
X18305516Y-11361585D01*
X18305516Y-11361585D02*
X18334088Y-11361585D01*
X18334088Y-11361585D02*
X18353135Y-11371109D01*
X18353135Y-11371109D02*
X18362659Y-11380632D01*
X18362659Y-11380632D02*
X18372183Y-11399680D01*
X18372183Y-11399680D02*
X18372183Y-11456823D01*
X18372183Y-11456823D02*
X18362659Y-11475870D01*
X18362659Y-11475870D02*
X18353135Y-11485394D01*
X18353135Y-11485394D02*
X18334088Y-11494918D01*
X18334088Y-11494918D02*
X18305516Y-11494918D01*
X18486469Y-11494918D02*
X18467421Y-11485394D01*
X18467421Y-11485394D02*
X18457897Y-11466347D01*
X18457897Y-11466347D02*
X18457897Y-11294918D01*
X18638850Y-11485394D02*
X18619802Y-11494918D01*
X18619802Y-11494918D02*
X18581707Y-11494918D01*
X18581707Y-11494918D02*
X18562659Y-11485394D01*
X18562659Y-11485394D02*
X18553135Y-11466347D01*
X18553135Y-11466347D02*
X18553135Y-11390156D01*
X18553135Y-11390156D02*
X18562659Y-11371109D01*
X18562659Y-11371109D02*
X18581707Y-11361585D01*
X18581707Y-11361585D02*
X18619802Y-11361585D01*
X18619802Y-11361585D02*
X18638850Y-11371109D01*
X18638850Y-11371109D02*
X18648373Y-11390156D01*
X18648373Y-11390156D02*
X18648373Y-11409204D01*
X18648373Y-11409204D02*
X18553135Y-11428251D01*
X18724564Y-11485394D02*
X18743611Y-11494918D01*
X18743611Y-11494918D02*
X18781707Y-11494918D01*
X18781707Y-11494918D02*
X18800754Y-11485394D01*
X18800754Y-11485394D02*
X18810278Y-11466347D01*
X18810278Y-11466347D02*
X18810278Y-11456823D01*
X18810278Y-11456823D02*
X18800754Y-11437775D01*
X18800754Y-11437775D02*
X18781707Y-11428251D01*
X18781707Y-11428251D02*
X18753135Y-11428251D01*
X18753135Y-11428251D02*
X18734088Y-11418728D01*
X18734088Y-11418728D02*
X18724564Y-11399680D01*
X18724564Y-11399680D02*
X18724564Y-11390156D01*
X18724564Y-11390156D02*
X18734088Y-11371109D01*
X18734088Y-11371109D02*
X18753135Y-11361585D01*
X18753135Y-11361585D02*
X18781707Y-11361585D01*
X18781707Y-11361585D02*
X18800754Y-11371109D01*
X18876945Y-11571109D02*
X18886469Y-11561585D01*
X18886469Y-11561585D02*
X18905516Y-11533013D01*
X18905516Y-11533013D02*
X18915040Y-11513966D01*
X18915040Y-11513966D02*
X18924564Y-11485394D01*
X18924564Y-11485394D02*
X18934088Y-11437775D01*
X18934088Y-11437775D02*
X18934088Y-11399680D01*
X18934088Y-11399680D02*
X18924564Y-11352061D01*
X18924564Y-11352061D02*
X18915040Y-11323490D01*
X18915040Y-11323490D02*
X18905516Y-11304442D01*
X18905516Y-11304442D02*
X18886469Y-11275870D01*
X18886469Y-11275870D02*
X18876945Y-11266347D01*
D12*
X13911406Y-11667434D02*
G75*
G02*
X13821406Y-11667434I-45000J0D01*
G01*
X13821406Y-11667434D02*
G75*
G02*
X13911406Y-11667434I45000J0D01*
G01*
D11*
X14210278Y-11558918D02*
X14229325Y-11558918D01*
X14229325Y-11558918D02*
X14248373Y-11568442D01*
X14248373Y-11568442D02*
X14257897Y-11577966D01*
X14257897Y-11577966D02*
X14267420Y-11597013D01*
X14267420Y-11597013D02*
X14276944Y-11635109D01*
X14276944Y-11635109D02*
X14276944Y-11682728D01*
X14276944Y-11682728D02*
X14267420Y-11720823D01*
X14267420Y-11720823D02*
X14257897Y-11739870D01*
X14257897Y-11739870D02*
X14248373Y-11749394D01*
X14248373Y-11749394D02*
X14229325Y-11758918D01*
X14229325Y-11758918D02*
X14210278Y-11758918D01*
X14210278Y-11758918D02*
X14191230Y-11749394D01*
X14191230Y-11749394D02*
X14181706Y-11739870D01*
X14181706Y-11739870D02*
X14172182Y-11720823D01*
X14172182Y-11720823D02*
X14162659Y-11682728D01*
X14162659Y-11682728D02*
X14162659Y-11635109D01*
X14162659Y-11635109D02*
X14172182Y-11597013D01*
X14172182Y-11597013D02*
X14181706Y-11577966D01*
X14181706Y-11577966D02*
X14191230Y-11568442D01*
X14191230Y-11568442D02*
X14210278Y-11558918D01*
X14362659Y-11739870D02*
X14372182Y-11749394D01*
X14372182Y-11749394D02*
X14362659Y-11758918D01*
X14362659Y-11758918D02*
X14353135Y-11749394D01*
X14353135Y-11749394D02*
X14362659Y-11739870D01*
X14362659Y-11739870D02*
X14362659Y-11758918D01*
X14467420Y-11758918D02*
X14505516Y-11758918D01*
X14505516Y-11758918D02*
X14524563Y-11749394D01*
X14524563Y-11749394D02*
X14534087Y-11739870D01*
X14534087Y-11739870D02*
X14553135Y-11711299D01*
X14553135Y-11711299D02*
X14562659Y-11673204D01*
X14562659Y-11673204D02*
X14562659Y-11597013D01*
X14562659Y-11597013D02*
X14553135Y-11577966D01*
X14553135Y-11577966D02*
X14543611Y-11568442D01*
X14543611Y-11568442D02*
X14524563Y-11558918D01*
X14524563Y-11558918D02*
X14486468Y-11558918D01*
X14486468Y-11558918D02*
X14467420Y-11568442D01*
X14467420Y-11568442D02*
X14457897Y-11577966D01*
X14457897Y-11577966D02*
X14448373Y-11597013D01*
X14448373Y-11597013D02*
X14448373Y-11644632D01*
X14448373Y-11644632D02*
X14457897Y-11663680D01*
X14457897Y-11663680D02*
X14467420Y-11673204D01*
X14467420Y-11673204D02*
X14486468Y-11682728D01*
X14486468Y-11682728D02*
X14524563Y-11682728D01*
X14524563Y-11682728D02*
X14543611Y-11673204D01*
X14543611Y-11673204D02*
X14553135Y-11663680D01*
X14553135Y-11663680D02*
X14562659Y-11644632D01*
X14686468Y-11558918D02*
X14705516Y-11558918D01*
X14705516Y-11558918D02*
X14724563Y-11568442D01*
X14724563Y-11568442D02*
X14734087Y-11577966D01*
X14734087Y-11577966D02*
X14743611Y-11597013D01*
X14743611Y-11597013D02*
X14753135Y-11635109D01*
X14753135Y-11635109D02*
X14753135Y-11682728D01*
X14753135Y-11682728D02*
X14743611Y-11720823D01*
X14743611Y-11720823D02*
X14734087Y-11739870D01*
X14734087Y-11739870D02*
X14724563Y-11749394D01*
X14724563Y-11749394D02*
X14705516Y-11758918D01*
X14705516Y-11758918D02*
X14686468Y-11758918D01*
X14686468Y-11758918D02*
X14667420Y-11749394D01*
X14667420Y-11749394D02*
X14657897Y-11739870D01*
X14657897Y-11739870D02*
X14648373Y-11720823D01*
X14648373Y-11720823D02*
X14638849Y-11682728D01*
X14638849Y-11682728D02*
X14638849Y-11635109D01*
X14638849Y-11635109D02*
X14648373Y-11597013D01*
X14648373Y-11597013D02*
X14657897Y-11577966D01*
X14657897Y-11577966D02*
X14667420Y-11568442D01*
X14667420Y-11568442D02*
X14686468Y-11558918D01*
X14876944Y-11558918D02*
X14895992Y-11558918D01*
X14895992Y-11558918D02*
X14915040Y-11568442D01*
X14915040Y-11568442D02*
X14924563Y-11577966D01*
X14924563Y-11577966D02*
X14934087Y-11597013D01*
X14934087Y-11597013D02*
X14943611Y-11635109D01*
X14943611Y-11635109D02*
X14943611Y-11682728D01*
X14943611Y-11682728D02*
X14934087Y-11720823D01*
X14934087Y-11720823D02*
X14924563Y-11739870D01*
X14924563Y-11739870D02*
X14915040Y-11749394D01*
X14915040Y-11749394D02*
X14895992Y-11758918D01*
X14895992Y-11758918D02*
X14876944Y-11758918D01*
X14876944Y-11758918D02*
X14857897Y-11749394D01*
X14857897Y-11749394D02*
X14848373Y-11739870D01*
X14848373Y-11739870D02*
X14838849Y-11720823D01*
X14838849Y-11720823D02*
X14829325Y-11682728D01*
X14829325Y-11682728D02*
X14829325Y-11635109D01*
X14829325Y-11635109D02*
X14838849Y-11597013D01*
X14838849Y-11597013D02*
X14848373Y-11577966D01*
X14848373Y-11577966D02*
X14857897Y-11568442D01*
X14857897Y-11568442D02*
X14876944Y-11558918D01*
X15029325Y-11758918D02*
X15029325Y-11625585D01*
X15029325Y-11644632D02*
X15038849Y-11635109D01*
X15038849Y-11635109D02*
X15057897Y-11625585D01*
X15057897Y-11625585D02*
X15086468Y-11625585D01*
X15086468Y-11625585D02*
X15105516Y-11635109D01*
X15105516Y-11635109D02*
X15115040Y-11654156D01*
X15115040Y-11654156D02*
X15115040Y-11758918D01*
X15115040Y-11654156D02*
X15124563Y-11635109D01*
X15124563Y-11635109D02*
X15143611Y-11625585D01*
X15143611Y-11625585D02*
X15172182Y-11625585D01*
X15172182Y-11625585D02*
X15191230Y-11635109D01*
X15191230Y-11635109D02*
X15200754Y-11654156D01*
X15200754Y-11654156D02*
X15200754Y-11758918D01*
X15295992Y-11758918D02*
X15295992Y-11625585D01*
X15295992Y-11644632D02*
X15305516Y-11635109D01*
X15305516Y-11635109D02*
X15324563Y-11625585D01*
X15324563Y-11625585D02*
X15353135Y-11625585D01*
X15353135Y-11625585D02*
X15372182Y-11635109D01*
X15372182Y-11635109D02*
X15381706Y-11654156D01*
X15381706Y-11654156D02*
X15381706Y-11758918D01*
X15381706Y-11654156D02*
X15391230Y-11635109D01*
X15391230Y-11635109D02*
X15410278Y-11625585D01*
X15410278Y-11625585D02*
X15438849Y-11625585D01*
X15438849Y-11625585D02*
X15457897Y-11635109D01*
X15457897Y-11635109D02*
X15467421Y-11654156D01*
X15467421Y-11654156D02*
X15467421Y-11758918D01*
X15857897Y-11549394D02*
X15686468Y-11806537D01*
X16115040Y-11558918D02*
X16134087Y-11558918D01*
X16134087Y-11558918D02*
X16153135Y-11568442D01*
X16153135Y-11568442D02*
X16162659Y-11577966D01*
X16162659Y-11577966D02*
X16172183Y-11597013D01*
X16172183Y-11597013D02*
X16181706Y-11635109D01*
X16181706Y-11635109D02*
X16181706Y-11682728D01*
X16181706Y-11682728D02*
X16172183Y-11720823D01*
X16172183Y-11720823D02*
X16162659Y-11739870D01*
X16162659Y-11739870D02*
X16153135Y-11749394D01*
X16153135Y-11749394D02*
X16134087Y-11758918D01*
X16134087Y-11758918D02*
X16115040Y-11758918D01*
X16115040Y-11758918D02*
X16095992Y-11749394D01*
X16095992Y-11749394D02*
X16086468Y-11739870D01*
X16086468Y-11739870D02*
X16076944Y-11720823D01*
X16076944Y-11720823D02*
X16067421Y-11682728D01*
X16067421Y-11682728D02*
X16067421Y-11635109D01*
X16067421Y-11635109D02*
X16076944Y-11597013D01*
X16076944Y-11597013D02*
X16086468Y-11577966D01*
X16086468Y-11577966D02*
X16095992Y-11568442D01*
X16095992Y-11568442D02*
X16115040Y-11558918D01*
X16267421Y-11739870D02*
X16276944Y-11749394D01*
X16276944Y-11749394D02*
X16267421Y-11758918D01*
X16267421Y-11758918D02*
X16257897Y-11749394D01*
X16257897Y-11749394D02*
X16267421Y-11739870D01*
X16267421Y-11739870D02*
X16267421Y-11758918D01*
X16400754Y-11558918D02*
X16419802Y-11558918D01*
X16419802Y-11558918D02*
X16438849Y-11568442D01*
X16438849Y-11568442D02*
X16448373Y-11577966D01*
X16448373Y-11577966D02*
X16457897Y-11597013D01*
X16457897Y-11597013D02*
X16467421Y-11635109D01*
X16467421Y-11635109D02*
X16467421Y-11682728D01*
X16467421Y-11682728D02*
X16457897Y-11720823D01*
X16457897Y-11720823D02*
X16448373Y-11739870D01*
X16448373Y-11739870D02*
X16438849Y-11749394D01*
X16438849Y-11749394D02*
X16419802Y-11758918D01*
X16419802Y-11758918D02*
X16400754Y-11758918D01*
X16400754Y-11758918D02*
X16381706Y-11749394D01*
X16381706Y-11749394D02*
X16372183Y-11739870D01*
X16372183Y-11739870D02*
X16362659Y-11720823D01*
X16362659Y-11720823D02*
X16353135Y-11682728D01*
X16353135Y-11682728D02*
X16353135Y-11635109D01*
X16353135Y-11635109D02*
X16362659Y-11597013D01*
X16362659Y-11597013D02*
X16372183Y-11577966D01*
X16372183Y-11577966D02*
X16381706Y-11568442D01*
X16381706Y-11568442D02*
X16400754Y-11558918D01*
X16534087Y-11558918D02*
X16657897Y-11558918D01*
X16657897Y-11558918D02*
X16591230Y-11635109D01*
X16591230Y-11635109D02*
X16619802Y-11635109D01*
X16619802Y-11635109D02*
X16638849Y-11644632D01*
X16638849Y-11644632D02*
X16648373Y-11654156D01*
X16648373Y-11654156D02*
X16657897Y-11673204D01*
X16657897Y-11673204D02*
X16657897Y-11720823D01*
X16657897Y-11720823D02*
X16648373Y-11739870D01*
X16648373Y-11739870D02*
X16638849Y-11749394D01*
X16638849Y-11749394D02*
X16619802Y-11758918D01*
X16619802Y-11758918D02*
X16562659Y-11758918D01*
X16562659Y-11758918D02*
X16543611Y-11749394D01*
X16543611Y-11749394D02*
X16534087Y-11739870D01*
X16838849Y-11558918D02*
X16743611Y-11558918D01*
X16743611Y-11558918D02*
X16734087Y-11654156D01*
X16734087Y-11654156D02*
X16743611Y-11644632D01*
X16743611Y-11644632D02*
X16762659Y-11635109D01*
X16762659Y-11635109D02*
X16810278Y-11635109D01*
X16810278Y-11635109D02*
X16829326Y-11644632D01*
X16829326Y-11644632D02*
X16838849Y-11654156D01*
X16838849Y-11654156D02*
X16848373Y-11673204D01*
X16848373Y-11673204D02*
X16848373Y-11720823D01*
X16848373Y-11720823D02*
X16838849Y-11739870D01*
X16838849Y-11739870D02*
X16829326Y-11749394D01*
X16829326Y-11749394D02*
X16810278Y-11758918D01*
X16810278Y-11758918D02*
X16762659Y-11758918D01*
X16762659Y-11758918D02*
X16743611Y-11749394D01*
X16743611Y-11749394D02*
X16734087Y-11739870D01*
X17019802Y-11625585D02*
X17019802Y-11758918D01*
X16972183Y-11549394D02*
X16924564Y-11692251D01*
X16924564Y-11692251D02*
X17048373Y-11692251D01*
X17115040Y-11558918D02*
X17115040Y-11597013D01*
X17191230Y-11558918D02*
X17191230Y-11597013D01*
X17486469Y-11835109D02*
X17476945Y-11825585D01*
X17476945Y-11825585D02*
X17457897Y-11797013D01*
X17457897Y-11797013D02*
X17448373Y-11777966D01*
X17448373Y-11777966D02*
X17438849Y-11749394D01*
X17438849Y-11749394D02*
X17429326Y-11701775D01*
X17429326Y-11701775D02*
X17429326Y-11663680D01*
X17429326Y-11663680D02*
X17438849Y-11616061D01*
X17438849Y-11616061D02*
X17448373Y-11587490D01*
X17448373Y-11587490D02*
X17457897Y-11568442D01*
X17457897Y-11568442D02*
X17476945Y-11539870D01*
X17476945Y-11539870D02*
X17486469Y-11530347D01*
X17553135Y-11577966D02*
X17562659Y-11568442D01*
X17562659Y-11568442D02*
X17581707Y-11558918D01*
X17581707Y-11558918D02*
X17629326Y-11558918D01*
X17629326Y-11558918D02*
X17648373Y-11568442D01*
X17648373Y-11568442D02*
X17657897Y-11577966D01*
X17657897Y-11577966D02*
X17667421Y-11597013D01*
X17667421Y-11597013D02*
X17667421Y-11616061D01*
X17667421Y-11616061D02*
X17657897Y-11644632D01*
X17657897Y-11644632D02*
X17543611Y-11758918D01*
X17543611Y-11758918D02*
X17667421Y-11758918D01*
X17905516Y-11758918D02*
X17905516Y-11558918D01*
X17991230Y-11758918D02*
X17991230Y-11654156D01*
X17991230Y-11654156D02*
X17981707Y-11635109D01*
X17981707Y-11635109D02*
X17962659Y-11625585D01*
X17962659Y-11625585D02*
X17934088Y-11625585D01*
X17934088Y-11625585D02*
X17915040Y-11635109D01*
X17915040Y-11635109D02*
X17905516Y-11644632D01*
X18115040Y-11758918D02*
X18095992Y-11749394D01*
X18095992Y-11749394D02*
X18086469Y-11739870D01*
X18086469Y-11739870D02*
X18076945Y-11720823D01*
X18076945Y-11720823D02*
X18076945Y-11663680D01*
X18076945Y-11663680D02*
X18086469Y-11644632D01*
X18086469Y-11644632D02*
X18095992Y-11635109D01*
X18095992Y-11635109D02*
X18115040Y-11625585D01*
X18115040Y-11625585D02*
X18143611Y-11625585D01*
X18143611Y-11625585D02*
X18162659Y-11635109D01*
X18162659Y-11635109D02*
X18172183Y-11644632D01*
X18172183Y-11644632D02*
X18181707Y-11663680D01*
X18181707Y-11663680D02*
X18181707Y-11720823D01*
X18181707Y-11720823D02*
X18172183Y-11739870D01*
X18172183Y-11739870D02*
X18162659Y-11749394D01*
X18162659Y-11749394D02*
X18143611Y-11758918D01*
X18143611Y-11758918D02*
X18115040Y-11758918D01*
X18295992Y-11758918D02*
X18276945Y-11749394D01*
X18276945Y-11749394D02*
X18267421Y-11730347D01*
X18267421Y-11730347D02*
X18267421Y-11558918D01*
X18448373Y-11749394D02*
X18429326Y-11758918D01*
X18429326Y-11758918D02*
X18391230Y-11758918D01*
X18391230Y-11758918D02*
X18372183Y-11749394D01*
X18372183Y-11749394D02*
X18362659Y-11730347D01*
X18362659Y-11730347D02*
X18362659Y-11654156D01*
X18362659Y-11654156D02*
X18372183Y-11635109D01*
X18372183Y-11635109D02*
X18391230Y-11625585D01*
X18391230Y-11625585D02*
X18429326Y-11625585D01*
X18429326Y-11625585D02*
X18448373Y-11635109D01*
X18448373Y-11635109D02*
X18457897Y-11654156D01*
X18457897Y-11654156D02*
X18457897Y-11673204D01*
X18457897Y-11673204D02*
X18362659Y-11692251D01*
X18534088Y-11749394D02*
X18553135Y-11758918D01*
X18553135Y-11758918D02*
X18591230Y-11758918D01*
X18591230Y-11758918D02*
X18610278Y-11749394D01*
X18610278Y-11749394D02*
X18619802Y-11730347D01*
X18619802Y-11730347D02*
X18619802Y-11720823D01*
X18619802Y-11720823D02*
X18610278Y-11701775D01*
X18610278Y-11701775D02*
X18591230Y-11692251D01*
X18591230Y-11692251D02*
X18562659Y-11692251D01*
X18562659Y-11692251D02*
X18543611Y-11682728D01*
X18543611Y-11682728D02*
X18534088Y-11663680D01*
X18534088Y-11663680D02*
X18534088Y-11654156D01*
X18534088Y-11654156D02*
X18543611Y-11635109D01*
X18543611Y-11635109D02*
X18562659Y-11625585D01*
X18562659Y-11625585D02*
X18591230Y-11625585D01*
X18591230Y-11625585D02*
X18610278Y-11635109D01*
X18686469Y-11835109D02*
X18695992Y-11825585D01*
X18695992Y-11825585D02*
X18715040Y-11797013D01*
X18715040Y-11797013D02*
X18724564Y-11777966D01*
X18724564Y-11777966D02*
X18734088Y-11749394D01*
X18734088Y-11749394D02*
X18743611Y-11701775D01*
X18743611Y-11701775D02*
X18743611Y-11663680D01*
X18743611Y-11663680D02*
X18734088Y-11616061D01*
X18734088Y-11616061D02*
X18724564Y-11587490D01*
X18724564Y-11587490D02*
X18715040Y-11568442D01*
X18715040Y-11568442D02*
X18695992Y-11539870D01*
X18695992Y-11539870D02*
X18686469Y-11530347D01*
D13*
X13860606Y-11880634D02*
X13860606Y-11982234D01*
X13809806Y-11931434D02*
X13911406Y-11931434D01*
D11*
X14276944Y-12022918D02*
X14162659Y-12022918D01*
X14219801Y-12022918D02*
X14219801Y-11822918D01*
X14219801Y-11822918D02*
X14200754Y-11851490D01*
X14200754Y-11851490D02*
X14181706Y-11870537D01*
X14181706Y-11870537D02*
X14162659Y-11880061D01*
X14362659Y-12003870D02*
X14372182Y-12013394D01*
X14372182Y-12013394D02*
X14362659Y-12022918D01*
X14362659Y-12022918D02*
X14353135Y-12013394D01*
X14353135Y-12013394D02*
X14362659Y-12003870D01*
X14362659Y-12003870D02*
X14362659Y-12022918D01*
X14495992Y-11822918D02*
X14515040Y-11822918D01*
X14515040Y-11822918D02*
X14534087Y-11832442D01*
X14534087Y-11832442D02*
X14543611Y-11841966D01*
X14543611Y-11841966D02*
X14553135Y-11861013D01*
X14553135Y-11861013D02*
X14562659Y-11899109D01*
X14562659Y-11899109D02*
X14562659Y-11946728D01*
X14562659Y-11946728D02*
X14553135Y-11984823D01*
X14553135Y-11984823D02*
X14543611Y-12003870D01*
X14543611Y-12003870D02*
X14534087Y-12013394D01*
X14534087Y-12013394D02*
X14515040Y-12022918D01*
X14515040Y-12022918D02*
X14495992Y-12022918D01*
X14495992Y-12022918D02*
X14476944Y-12013394D01*
X14476944Y-12013394D02*
X14467420Y-12003870D01*
X14467420Y-12003870D02*
X14457897Y-11984823D01*
X14457897Y-11984823D02*
X14448373Y-11946728D01*
X14448373Y-11946728D02*
X14448373Y-11899109D01*
X14448373Y-11899109D02*
X14457897Y-11861013D01*
X14457897Y-11861013D02*
X14467420Y-11841966D01*
X14467420Y-11841966D02*
X14476944Y-11832442D01*
X14476944Y-11832442D02*
X14495992Y-11822918D01*
X14753135Y-12022918D02*
X14638849Y-12022918D01*
X14695992Y-12022918D02*
X14695992Y-11822918D01*
X14695992Y-11822918D02*
X14676944Y-11851490D01*
X14676944Y-11851490D02*
X14657897Y-11870537D01*
X14657897Y-11870537D02*
X14638849Y-11880061D01*
X14924563Y-11822918D02*
X14886468Y-11822918D01*
X14886468Y-11822918D02*
X14867420Y-11832442D01*
X14867420Y-11832442D02*
X14857897Y-11841966D01*
X14857897Y-11841966D02*
X14838849Y-11870537D01*
X14838849Y-11870537D02*
X14829325Y-11908632D01*
X14829325Y-11908632D02*
X14829325Y-11984823D01*
X14829325Y-11984823D02*
X14838849Y-12003870D01*
X14838849Y-12003870D02*
X14848373Y-12013394D01*
X14848373Y-12013394D02*
X14867420Y-12022918D01*
X14867420Y-12022918D02*
X14905516Y-12022918D01*
X14905516Y-12022918D02*
X14924563Y-12013394D01*
X14924563Y-12013394D02*
X14934087Y-12003870D01*
X14934087Y-12003870D02*
X14943611Y-11984823D01*
X14943611Y-11984823D02*
X14943611Y-11937204D01*
X14943611Y-11937204D02*
X14934087Y-11918156D01*
X14934087Y-11918156D02*
X14924563Y-11908632D01*
X14924563Y-11908632D02*
X14905516Y-11899109D01*
X14905516Y-11899109D02*
X14867420Y-11899109D01*
X14867420Y-11899109D02*
X14848373Y-11908632D01*
X14848373Y-11908632D02*
X14838849Y-11918156D01*
X14838849Y-11918156D02*
X14829325Y-11937204D01*
X15029325Y-12022918D02*
X15029325Y-11889585D01*
X15029325Y-11908632D02*
X15038849Y-11899109D01*
X15038849Y-11899109D02*
X15057897Y-11889585D01*
X15057897Y-11889585D02*
X15086468Y-11889585D01*
X15086468Y-11889585D02*
X15105516Y-11899109D01*
X15105516Y-11899109D02*
X15115040Y-11918156D01*
X15115040Y-11918156D02*
X15115040Y-12022918D01*
X15115040Y-11918156D02*
X15124563Y-11899109D01*
X15124563Y-11899109D02*
X15143611Y-11889585D01*
X15143611Y-11889585D02*
X15172182Y-11889585D01*
X15172182Y-11889585D02*
X15191230Y-11899109D01*
X15191230Y-11899109D02*
X15200754Y-11918156D01*
X15200754Y-11918156D02*
X15200754Y-12022918D01*
X15295992Y-12022918D02*
X15295992Y-11889585D01*
X15295992Y-11908632D02*
X15305516Y-11899109D01*
X15305516Y-11899109D02*
X15324563Y-11889585D01*
X15324563Y-11889585D02*
X15353135Y-11889585D01*
X15353135Y-11889585D02*
X15372182Y-11899109D01*
X15372182Y-11899109D02*
X15381706Y-11918156D01*
X15381706Y-11918156D02*
X15381706Y-12022918D01*
X15381706Y-11918156D02*
X15391230Y-11899109D01*
X15391230Y-11899109D02*
X15410278Y-11889585D01*
X15410278Y-11889585D02*
X15438849Y-11889585D01*
X15438849Y-11889585D02*
X15457897Y-11899109D01*
X15457897Y-11899109D02*
X15467421Y-11918156D01*
X15467421Y-11918156D02*
X15467421Y-12022918D01*
X15857897Y-11813394D02*
X15686468Y-12070537D01*
X16115040Y-11822918D02*
X16134087Y-11822918D01*
X16134087Y-11822918D02*
X16153135Y-11832442D01*
X16153135Y-11832442D02*
X16162659Y-11841966D01*
X16162659Y-11841966D02*
X16172183Y-11861013D01*
X16172183Y-11861013D02*
X16181706Y-11899109D01*
X16181706Y-11899109D02*
X16181706Y-11946728D01*
X16181706Y-11946728D02*
X16172183Y-11984823D01*
X16172183Y-11984823D02*
X16162659Y-12003870D01*
X16162659Y-12003870D02*
X16153135Y-12013394D01*
X16153135Y-12013394D02*
X16134087Y-12022918D01*
X16134087Y-12022918D02*
X16115040Y-12022918D01*
X16115040Y-12022918D02*
X16095992Y-12013394D01*
X16095992Y-12013394D02*
X16086468Y-12003870D01*
X16086468Y-12003870D02*
X16076944Y-11984823D01*
X16076944Y-11984823D02*
X16067421Y-11946728D01*
X16067421Y-11946728D02*
X16067421Y-11899109D01*
X16067421Y-11899109D02*
X16076944Y-11861013D01*
X16076944Y-11861013D02*
X16086468Y-11841966D01*
X16086468Y-11841966D02*
X16095992Y-11832442D01*
X16095992Y-11832442D02*
X16115040Y-11822918D01*
X16267421Y-12003870D02*
X16276944Y-12013394D01*
X16276944Y-12013394D02*
X16267421Y-12022918D01*
X16267421Y-12022918D02*
X16257897Y-12013394D01*
X16257897Y-12013394D02*
X16267421Y-12003870D01*
X16267421Y-12003870D02*
X16267421Y-12022918D01*
X16400754Y-11822918D02*
X16419802Y-11822918D01*
X16419802Y-11822918D02*
X16438849Y-11832442D01*
X16438849Y-11832442D02*
X16448373Y-11841966D01*
X16448373Y-11841966D02*
X16457897Y-11861013D01*
X16457897Y-11861013D02*
X16467421Y-11899109D01*
X16467421Y-11899109D02*
X16467421Y-11946728D01*
X16467421Y-11946728D02*
X16457897Y-11984823D01*
X16457897Y-11984823D02*
X16448373Y-12003870D01*
X16448373Y-12003870D02*
X16438849Y-12013394D01*
X16438849Y-12013394D02*
X16419802Y-12022918D01*
X16419802Y-12022918D02*
X16400754Y-12022918D01*
X16400754Y-12022918D02*
X16381706Y-12013394D01*
X16381706Y-12013394D02*
X16372183Y-12003870D01*
X16372183Y-12003870D02*
X16362659Y-11984823D01*
X16362659Y-11984823D02*
X16353135Y-11946728D01*
X16353135Y-11946728D02*
X16353135Y-11899109D01*
X16353135Y-11899109D02*
X16362659Y-11861013D01*
X16362659Y-11861013D02*
X16372183Y-11841966D01*
X16372183Y-11841966D02*
X16381706Y-11832442D01*
X16381706Y-11832442D02*
X16400754Y-11822918D01*
X16638849Y-11889585D02*
X16638849Y-12022918D01*
X16591230Y-11813394D02*
X16543611Y-11956251D01*
X16543611Y-11956251D02*
X16667421Y-11956251D01*
X16781706Y-11822918D02*
X16800754Y-11822918D01*
X16800754Y-11822918D02*
X16819802Y-11832442D01*
X16819802Y-11832442D02*
X16829326Y-11841966D01*
X16829326Y-11841966D02*
X16838849Y-11861013D01*
X16838849Y-11861013D02*
X16848373Y-11899109D01*
X16848373Y-11899109D02*
X16848373Y-11946728D01*
X16848373Y-11946728D02*
X16838849Y-11984823D01*
X16838849Y-11984823D02*
X16829326Y-12003870D01*
X16829326Y-12003870D02*
X16819802Y-12013394D01*
X16819802Y-12013394D02*
X16800754Y-12022918D01*
X16800754Y-12022918D02*
X16781706Y-12022918D01*
X16781706Y-12022918D02*
X16762659Y-12013394D01*
X16762659Y-12013394D02*
X16753135Y-12003870D01*
X16753135Y-12003870D02*
X16743611Y-11984823D01*
X16743611Y-11984823D02*
X16734087Y-11946728D01*
X16734087Y-11946728D02*
X16734087Y-11899109D01*
X16734087Y-11899109D02*
X16743611Y-11861013D01*
X16743611Y-11861013D02*
X16753135Y-11841966D01*
X16753135Y-11841966D02*
X16762659Y-11832442D01*
X16762659Y-11832442D02*
X16781706Y-11822918D01*
X16972183Y-11822918D02*
X16991230Y-11822918D01*
X16991230Y-11822918D02*
X17010278Y-11832442D01*
X17010278Y-11832442D02*
X17019802Y-11841966D01*
X17019802Y-11841966D02*
X17029326Y-11861013D01*
X17029326Y-11861013D02*
X17038849Y-11899109D01*
X17038849Y-11899109D02*
X17038849Y-11946728D01*
X17038849Y-11946728D02*
X17029326Y-11984823D01*
X17029326Y-11984823D02*
X17019802Y-12003870D01*
X17019802Y-12003870D02*
X17010278Y-12013394D01*
X17010278Y-12013394D02*
X16991230Y-12022918D01*
X16991230Y-12022918D02*
X16972183Y-12022918D01*
X16972183Y-12022918D02*
X16953135Y-12013394D01*
X16953135Y-12013394D02*
X16943611Y-12003870D01*
X16943611Y-12003870D02*
X16934087Y-11984823D01*
X16934087Y-11984823D02*
X16924564Y-11946728D01*
X16924564Y-11946728D02*
X16924564Y-11899109D01*
X16924564Y-11899109D02*
X16934087Y-11861013D01*
X16934087Y-11861013D02*
X16943611Y-11841966D01*
X16943611Y-11841966D02*
X16953135Y-11832442D01*
X16953135Y-11832442D02*
X16972183Y-11822918D01*
X17115040Y-11822918D02*
X17115040Y-11861013D01*
X17191230Y-11822918D02*
X17191230Y-11861013D01*
X17486469Y-12099109D02*
X17476945Y-12089585D01*
X17476945Y-12089585D02*
X17457897Y-12061013D01*
X17457897Y-12061013D02*
X17448373Y-12041966D01*
X17448373Y-12041966D02*
X17438849Y-12013394D01*
X17438849Y-12013394D02*
X17429326Y-11965775D01*
X17429326Y-11965775D02*
X17429326Y-11927680D01*
X17429326Y-11927680D02*
X17438849Y-11880061D01*
X17438849Y-11880061D02*
X17448373Y-11851490D01*
X17448373Y-11851490D02*
X17457897Y-11832442D01*
X17457897Y-11832442D02*
X17476945Y-11803870D01*
X17476945Y-11803870D02*
X17486469Y-11794347D01*
X17591230Y-11908632D02*
X17572183Y-11899109D01*
X17572183Y-11899109D02*
X17562659Y-11889585D01*
X17562659Y-11889585D02*
X17553135Y-11870537D01*
X17553135Y-11870537D02*
X17553135Y-11861013D01*
X17553135Y-11861013D02*
X17562659Y-11841966D01*
X17562659Y-11841966D02*
X17572183Y-11832442D01*
X17572183Y-11832442D02*
X17591230Y-11822918D01*
X17591230Y-11822918D02*
X17629326Y-11822918D01*
X17629326Y-11822918D02*
X17648373Y-11832442D01*
X17648373Y-11832442D02*
X17657897Y-11841966D01*
X17657897Y-11841966D02*
X17667421Y-11861013D01*
X17667421Y-11861013D02*
X17667421Y-11870537D01*
X17667421Y-11870537D02*
X17657897Y-11889585D01*
X17657897Y-11889585D02*
X17648373Y-11899109D01*
X17648373Y-11899109D02*
X17629326Y-11908632D01*
X17629326Y-11908632D02*
X17591230Y-11908632D01*
X17591230Y-11908632D02*
X17572183Y-11918156D01*
X17572183Y-11918156D02*
X17562659Y-11927680D01*
X17562659Y-11927680D02*
X17553135Y-11946728D01*
X17553135Y-11946728D02*
X17553135Y-11984823D01*
X17553135Y-11984823D02*
X17562659Y-12003870D01*
X17562659Y-12003870D02*
X17572183Y-12013394D01*
X17572183Y-12013394D02*
X17591230Y-12022918D01*
X17591230Y-12022918D02*
X17629326Y-12022918D01*
X17629326Y-12022918D02*
X17648373Y-12013394D01*
X17648373Y-12013394D02*
X17657897Y-12003870D01*
X17657897Y-12003870D02*
X17667421Y-11984823D01*
X17667421Y-11984823D02*
X17667421Y-11946728D01*
X17667421Y-11946728D02*
X17657897Y-11927680D01*
X17657897Y-11927680D02*
X17648373Y-11918156D01*
X17648373Y-11918156D02*
X17629326Y-11908632D01*
X17905516Y-12022918D02*
X17905516Y-11822918D01*
X17991230Y-12022918D02*
X17991230Y-11918156D01*
X17991230Y-11918156D02*
X17981707Y-11899109D01*
X17981707Y-11899109D02*
X17962659Y-11889585D01*
X17962659Y-11889585D02*
X17934088Y-11889585D01*
X17934088Y-11889585D02*
X17915040Y-11899109D01*
X17915040Y-11899109D02*
X17905516Y-11908632D01*
X18115040Y-12022918D02*
X18095992Y-12013394D01*
X18095992Y-12013394D02*
X18086469Y-12003870D01*
X18086469Y-12003870D02*
X18076945Y-11984823D01*
X18076945Y-11984823D02*
X18076945Y-11927680D01*
X18076945Y-11927680D02*
X18086469Y-11908632D01*
X18086469Y-11908632D02*
X18095992Y-11899109D01*
X18095992Y-11899109D02*
X18115040Y-11889585D01*
X18115040Y-11889585D02*
X18143611Y-11889585D01*
X18143611Y-11889585D02*
X18162659Y-11899109D01*
X18162659Y-11899109D02*
X18172183Y-11908632D01*
X18172183Y-11908632D02*
X18181707Y-11927680D01*
X18181707Y-11927680D02*
X18181707Y-11984823D01*
X18181707Y-11984823D02*
X18172183Y-12003870D01*
X18172183Y-12003870D02*
X18162659Y-12013394D01*
X18162659Y-12013394D02*
X18143611Y-12022918D01*
X18143611Y-12022918D02*
X18115040Y-12022918D01*
X18295992Y-12022918D02*
X18276945Y-12013394D01*
X18276945Y-12013394D02*
X18267421Y-11994347D01*
X18267421Y-11994347D02*
X18267421Y-11822918D01*
X18448373Y-12013394D02*
X18429326Y-12022918D01*
X18429326Y-12022918D02*
X18391230Y-12022918D01*
X18391230Y-12022918D02*
X18372183Y-12013394D01*
X18372183Y-12013394D02*
X18362659Y-11994347D01*
X18362659Y-11994347D02*
X18362659Y-11918156D01*
X18362659Y-11918156D02*
X18372183Y-11899109D01*
X18372183Y-11899109D02*
X18391230Y-11889585D01*
X18391230Y-11889585D02*
X18429326Y-11889585D01*
X18429326Y-11889585D02*
X18448373Y-11899109D01*
X18448373Y-11899109D02*
X18457897Y-11918156D01*
X18457897Y-11918156D02*
X18457897Y-11937204D01*
X18457897Y-11937204D02*
X18362659Y-11956251D01*
X18534088Y-12013394D02*
X18553135Y-12022918D01*
X18553135Y-12022918D02*
X18591230Y-12022918D01*
X18591230Y-12022918D02*
X18610278Y-12013394D01*
X18610278Y-12013394D02*
X18619802Y-11994347D01*
X18619802Y-11994347D02*
X18619802Y-11984823D01*
X18619802Y-11984823D02*
X18610278Y-11965775D01*
X18610278Y-11965775D02*
X18591230Y-11956251D01*
X18591230Y-11956251D02*
X18562659Y-11956251D01*
X18562659Y-11956251D02*
X18543611Y-11946728D01*
X18543611Y-11946728D02*
X18534088Y-11927680D01*
X18534088Y-11927680D02*
X18534088Y-11918156D01*
X18534088Y-11918156D02*
X18543611Y-11899109D01*
X18543611Y-11899109D02*
X18562659Y-11889585D01*
X18562659Y-11889585D02*
X18591230Y-11889585D01*
X18591230Y-11889585D02*
X18610278Y-11899109D01*
X18686469Y-12099109D02*
X18695992Y-12089585D01*
X18695992Y-12089585D02*
X18715040Y-12061013D01*
X18715040Y-12061013D02*
X18724564Y-12041966D01*
X18724564Y-12041966D02*
X18734088Y-12013394D01*
X18734088Y-12013394D02*
X18743611Y-11965775D01*
X18743611Y-11965775D02*
X18743611Y-11927680D01*
X18743611Y-11927680D02*
X18734088Y-11880061D01*
X18734088Y-11880061D02*
X18724564Y-11851490D01*
X18724564Y-11851490D02*
X18715040Y-11832442D01*
X18715040Y-11832442D02*
X18695992Y-11803870D01*
X18695992Y-11803870D02*
X18686469Y-11794347D01*
M02*
