M48
; DRILL file {KiCad 8.0.5} date 2024-09-21T22:46:57-0600
; FORMAT={-:-/ absolute / inch / decimal}
; #@! TF.CreationDate,2024-09-21T22:46:57-06:00
; #@! TF.GenerationSoftware,Kicad,Pcbnew,8.0.5
; #@! TF.FileFunction,Plated,1,2,PTH
FMAT,2
INCH
; #@! TA.AperFunction,Plated,PTH,ViaDrill
T1C0.0118
; #@! TA.AperFunction,Plated,PTH,ComponentDrill
T2C0.0354
; #@! TA.AperFunction,Plated,PTH,ComponentDrill
T3C0.0400
%
G90
G05
T1
X5.5394Y-3.9331
X5.5394Y-4.0492
X5.5413Y-3.5984
X5.5768Y-4.1417
X5.5827Y-3.5295
X5.624Y-4.0512
X5.6969Y-3.4705
X5.7047Y-4.1988
X5.7402Y-4.1161
X5.7441Y-3.9843
X5.7461Y-4.1654
X5.7657Y-3.498
X5.8051Y-4.1713
X5.8228Y-3.5472
X5.8937Y-4.0591
X5.9094Y-4.1673
X5.9626Y-3.6988
X5.9665Y-4.189
X6.0591Y-4.1831
X6.061Y-3.5315
X6.1831Y-3.5472
X6.185Y-4.1417
X6.1929Y-3.628
X6.2165Y-3.7224
X6.248Y-3.5551
X6.25Y-4.0787
T2
X5.5841Y-3.9902
X5.6841Y-3.9902
T3
X5.5301Y-3.4884
X5.5301Y-4.1884
X5.6301Y-3.4884
X5.6301Y-4.1884
X6.1301Y-3.4884
X6.1301Y-4.1884
X6.2301Y-3.4884
X6.2301Y-4.1884
M30
