%TF.GenerationSoftware,KiCad,Pcbnew,8.0.5*%
%TF.CreationDate,2024-09-21T22:48:15-06:00*%
%TF.ProjectId,KiCad_MiniBadge_Learning,4b694361-645f-44d6-996e-694261646765,rev?*%
%TF.SameCoordinates,Original*%
%TF.FileFunction,Legend,Bot*%
%TF.FilePolarity,Positive*%
%FSLAX46Y46*%
G04 Gerber Fmt 4.6, Leading zero omitted, Abs format (unit mm)*
G04 Created by KiCad (PCBNEW 8.0.5) date 2024-09-21 22:48:15*
%MOMM*%
%LPD*%
G01*
G04 APERTURE LIST*
%ADD10C,0.150000*%
%ADD11C,0.120000*%
G04 APERTURE END LIST*
D10*
X157747438Y-102956095D02*
X157699819Y-102860857D01*
X157699819Y-102860857D02*
X157699819Y-102718000D01*
X157699819Y-102718000D02*
X157747438Y-102575143D01*
X157747438Y-102575143D02*
X157842676Y-102479905D01*
X157842676Y-102479905D02*
X157937914Y-102432286D01*
X157937914Y-102432286D02*
X158128390Y-102384667D01*
X158128390Y-102384667D02*
X158271247Y-102384667D01*
X158271247Y-102384667D02*
X158461723Y-102432286D01*
X158461723Y-102432286D02*
X158556961Y-102479905D01*
X158556961Y-102479905D02*
X158652200Y-102575143D01*
X158652200Y-102575143D02*
X158699819Y-102718000D01*
X158699819Y-102718000D02*
X158699819Y-102813238D01*
X158699819Y-102813238D02*
X158652200Y-102956095D01*
X158652200Y-102956095D02*
X158604580Y-103003714D01*
X158604580Y-103003714D02*
X158271247Y-103003714D01*
X158271247Y-103003714D02*
X158271247Y-102813238D01*
X158699819Y-103432286D02*
X157699819Y-103432286D01*
X157699819Y-103432286D02*
X158699819Y-104003714D01*
X158699819Y-104003714D02*
X157699819Y-104003714D01*
X158699819Y-104479905D02*
X157699819Y-104479905D01*
X157699819Y-104479905D02*
X157699819Y-104718000D01*
X157699819Y-104718000D02*
X157747438Y-104860857D01*
X157747438Y-104860857D02*
X157842676Y-104956095D01*
X157842676Y-104956095D02*
X157937914Y-105003714D01*
X157937914Y-105003714D02*
X158128390Y-105051333D01*
X158128390Y-105051333D02*
X158271247Y-105051333D01*
X158271247Y-105051333D02*
X158461723Y-105003714D01*
X158461723Y-105003714D02*
X158556961Y-104956095D01*
X158556961Y-104956095D02*
X158652200Y-104860857D01*
X158652200Y-104860857D02*
X158699819Y-104718000D01*
X158699819Y-104718000D02*
X158699819Y-104479905D01*
X142507438Y-90383095D02*
X142459819Y-90287857D01*
X142459819Y-90287857D02*
X142459819Y-90145000D01*
X142459819Y-90145000D02*
X142507438Y-90002143D01*
X142507438Y-90002143D02*
X142602676Y-89906905D01*
X142602676Y-89906905D02*
X142697914Y-89859286D01*
X142697914Y-89859286D02*
X142888390Y-89811667D01*
X142888390Y-89811667D02*
X143031247Y-89811667D01*
X143031247Y-89811667D02*
X143221723Y-89859286D01*
X143221723Y-89859286D02*
X143316961Y-89906905D01*
X143316961Y-89906905D02*
X143412200Y-90002143D01*
X143412200Y-90002143D02*
X143459819Y-90145000D01*
X143459819Y-90145000D02*
X143459819Y-90240238D01*
X143459819Y-90240238D02*
X143412200Y-90383095D01*
X143412200Y-90383095D02*
X143364580Y-90430714D01*
X143364580Y-90430714D02*
X143031247Y-90430714D01*
X143031247Y-90430714D02*
X143031247Y-90240238D01*
X143459819Y-90859286D02*
X142459819Y-90859286D01*
X142459819Y-90859286D02*
X143459819Y-91430714D01*
X143459819Y-91430714D02*
X142459819Y-91430714D01*
X143459819Y-91906905D02*
X142459819Y-91906905D01*
X142459819Y-91906905D02*
X142459819Y-92145000D01*
X142459819Y-92145000D02*
X142507438Y-92287857D01*
X142507438Y-92287857D02*
X142602676Y-92383095D01*
X142602676Y-92383095D02*
X142697914Y-92430714D01*
X142697914Y-92430714D02*
X142888390Y-92478333D01*
X142888390Y-92478333D02*
X143031247Y-92478333D01*
X143031247Y-92478333D02*
X143221723Y-92430714D01*
X143221723Y-92430714D02*
X143316961Y-92383095D01*
X143316961Y-92383095D02*
X143412200Y-92287857D01*
X143412200Y-92287857D02*
X143459819Y-92145000D01*
X143459819Y-92145000D02*
X143459819Y-91906905D01*
X140824580Y-103630761D02*
X140872200Y-103583142D01*
X140872200Y-103583142D02*
X140919819Y-103440285D01*
X140919819Y-103440285D02*
X140919819Y-103345047D01*
X140919819Y-103345047D02*
X140872200Y-103202190D01*
X140872200Y-103202190D02*
X140776961Y-103106952D01*
X140776961Y-103106952D02*
X140681723Y-103059333D01*
X140681723Y-103059333D02*
X140491247Y-103011714D01*
X140491247Y-103011714D02*
X140348390Y-103011714D01*
X140348390Y-103011714D02*
X140157914Y-103059333D01*
X140157914Y-103059333D02*
X140062676Y-103106952D01*
X140062676Y-103106952D02*
X139967438Y-103202190D01*
X139967438Y-103202190D02*
X139919819Y-103345047D01*
X139919819Y-103345047D02*
X139919819Y-103440285D01*
X139919819Y-103440285D02*
X139967438Y-103583142D01*
X139967438Y-103583142D02*
X140015057Y-103630761D01*
X140919819Y-104535523D02*
X140919819Y-104059333D01*
X140919819Y-104059333D02*
X139919819Y-104059333D01*
X140919819Y-104868857D02*
X139919819Y-104868857D01*
X140919819Y-105440285D02*
X140348390Y-105011714D01*
X139919819Y-105440285D02*
X140491247Y-104868857D01*
X140538866Y-89859286D02*
X140538866Y-90621191D01*
X140919819Y-90240238D02*
X140157914Y-90240238D01*
X139919819Y-91573571D02*
X139919819Y-91097381D01*
X139919819Y-91097381D02*
X140396009Y-91049762D01*
X140396009Y-91049762D02*
X140348390Y-91097381D01*
X140348390Y-91097381D02*
X140300771Y-91192619D01*
X140300771Y-91192619D02*
X140300771Y-91430714D01*
X140300771Y-91430714D02*
X140348390Y-91525952D01*
X140348390Y-91525952D02*
X140396009Y-91573571D01*
X140396009Y-91573571D02*
X140491247Y-91621190D01*
X140491247Y-91621190D02*
X140729342Y-91621190D01*
X140729342Y-91621190D02*
X140824580Y-91573571D01*
X140824580Y-91573571D02*
X140872200Y-91525952D01*
X140872200Y-91525952D02*
X140919819Y-91430714D01*
X140919819Y-91430714D02*
X140919819Y-91192619D01*
X140919819Y-91192619D02*
X140872200Y-91097381D01*
X140872200Y-91097381D02*
X140824580Y-91049762D01*
X139919819Y-91906905D02*
X140919819Y-92240238D01*
X140919819Y-92240238D02*
X139919819Y-92573571D01*
X155778866Y-101448095D02*
X155778866Y-102210000D01*
X156159819Y-101829047D02*
X155397914Y-101829047D01*
X155159819Y-102590952D02*
X155159819Y-103209999D01*
X155159819Y-103209999D02*
X155540771Y-102876666D01*
X155540771Y-102876666D02*
X155540771Y-103019523D01*
X155540771Y-103019523D02*
X155588390Y-103114761D01*
X155588390Y-103114761D02*
X155636009Y-103162380D01*
X155636009Y-103162380D02*
X155731247Y-103209999D01*
X155731247Y-103209999D02*
X155969342Y-103209999D01*
X155969342Y-103209999D02*
X156064580Y-103162380D01*
X156064580Y-103162380D02*
X156112200Y-103114761D01*
X156112200Y-103114761D02*
X156159819Y-103019523D01*
X156159819Y-103019523D02*
X156159819Y-102733809D01*
X156159819Y-102733809D02*
X156112200Y-102638571D01*
X156112200Y-102638571D02*
X156064580Y-102590952D01*
X155159819Y-103495714D02*
X156159819Y-103829047D01*
X156159819Y-103829047D02*
X155159819Y-104162380D01*
X155159819Y-104400476D02*
X155159819Y-105019523D01*
X155159819Y-105019523D02*
X155540771Y-104686190D01*
X155540771Y-104686190D02*
X155540771Y-104829047D01*
X155540771Y-104829047D02*
X155588390Y-104924285D01*
X155588390Y-104924285D02*
X155636009Y-104971904D01*
X155636009Y-104971904D02*
X155731247Y-105019523D01*
X155731247Y-105019523D02*
X155969342Y-105019523D01*
X155969342Y-105019523D02*
X156064580Y-104971904D01*
X156064580Y-104971904D02*
X156112200Y-104924285D01*
X156112200Y-104924285D02*
X156159819Y-104829047D01*
X156159819Y-104829047D02*
X156159819Y-104543333D01*
X156159819Y-104543333D02*
X156112200Y-104448095D01*
X156112200Y-104448095D02*
X156064580Y-104400476D01*
X157747438Y-90383095D02*
X157699819Y-90287857D01*
X157699819Y-90287857D02*
X157699819Y-90145000D01*
X157699819Y-90145000D02*
X157747438Y-90002143D01*
X157747438Y-90002143D02*
X157842676Y-89906905D01*
X157842676Y-89906905D02*
X157937914Y-89859286D01*
X157937914Y-89859286D02*
X158128390Y-89811667D01*
X158128390Y-89811667D02*
X158271247Y-89811667D01*
X158271247Y-89811667D02*
X158461723Y-89859286D01*
X158461723Y-89859286D02*
X158556961Y-89906905D01*
X158556961Y-89906905D02*
X158652200Y-90002143D01*
X158652200Y-90002143D02*
X158699819Y-90145000D01*
X158699819Y-90145000D02*
X158699819Y-90240238D01*
X158699819Y-90240238D02*
X158652200Y-90383095D01*
X158652200Y-90383095D02*
X158604580Y-90430714D01*
X158604580Y-90430714D02*
X158271247Y-90430714D01*
X158271247Y-90430714D02*
X158271247Y-90240238D01*
X158699819Y-90859286D02*
X157699819Y-90859286D01*
X157699819Y-90859286D02*
X158699819Y-91430714D01*
X158699819Y-91430714D02*
X157699819Y-91430714D01*
X158699819Y-91906905D02*
X157699819Y-91906905D01*
X157699819Y-91906905D02*
X157699819Y-92145000D01*
X157699819Y-92145000D02*
X157747438Y-92287857D01*
X157747438Y-92287857D02*
X157842676Y-92383095D01*
X157842676Y-92383095D02*
X157937914Y-92430714D01*
X157937914Y-92430714D02*
X158128390Y-92478333D01*
X158128390Y-92478333D02*
X158271247Y-92478333D01*
X158271247Y-92478333D02*
X158461723Y-92430714D01*
X158461723Y-92430714D02*
X158556961Y-92383095D01*
X158556961Y-92383095D02*
X158652200Y-92287857D01*
X158652200Y-92287857D02*
X158699819Y-92145000D01*
X158699819Y-92145000D02*
X158699819Y-91906905D01*
X155778866Y-89891095D02*
X155778866Y-90653000D01*
X156159819Y-90272047D02*
X155397914Y-90272047D01*
X155159819Y-91033952D02*
X155159819Y-91652999D01*
X155159819Y-91652999D02*
X155540771Y-91319666D01*
X155540771Y-91319666D02*
X155540771Y-91462523D01*
X155540771Y-91462523D02*
X155588390Y-91557761D01*
X155588390Y-91557761D02*
X155636009Y-91605380D01*
X155636009Y-91605380D02*
X155731247Y-91652999D01*
X155731247Y-91652999D02*
X155969342Y-91652999D01*
X155969342Y-91652999D02*
X156064580Y-91605380D01*
X156064580Y-91605380D02*
X156112200Y-91557761D01*
X156112200Y-91557761D02*
X156159819Y-91462523D01*
X156159819Y-91462523D02*
X156159819Y-91176809D01*
X156159819Y-91176809D02*
X156112200Y-91081571D01*
X156112200Y-91081571D02*
X156064580Y-91033952D01*
X155159819Y-91938714D02*
X156159819Y-92272047D01*
X156159819Y-92272047D02*
X155159819Y-92605380D01*
X155159819Y-92843476D02*
X155159819Y-93462523D01*
X155159819Y-93462523D02*
X155540771Y-93129190D01*
X155540771Y-93129190D02*
X155540771Y-93272047D01*
X155540771Y-93272047D02*
X155588390Y-93367285D01*
X155588390Y-93367285D02*
X155636009Y-93414904D01*
X155636009Y-93414904D02*
X155731247Y-93462523D01*
X155731247Y-93462523D02*
X155969342Y-93462523D01*
X155969342Y-93462523D02*
X156064580Y-93414904D01*
X156064580Y-93414904D02*
X156112200Y-93367285D01*
X156112200Y-93367285D02*
X156159819Y-93272047D01*
X156159819Y-93272047D02*
X156159819Y-92986333D01*
X156159819Y-92986333D02*
X156112200Y-92891095D01*
X156112200Y-92891095D02*
X156064580Y-92843476D01*
X153616666Y-91554819D02*
X153949999Y-91078628D01*
X154188094Y-91554819D02*
X154188094Y-90554819D01*
X154188094Y-90554819D02*
X153807142Y-90554819D01*
X153807142Y-90554819D02*
X153711904Y-90602438D01*
X153711904Y-90602438D02*
X153664285Y-90650057D01*
X153664285Y-90650057D02*
X153616666Y-90745295D01*
X153616666Y-90745295D02*
X153616666Y-90888152D01*
X153616666Y-90888152D02*
X153664285Y-90983390D01*
X153664285Y-90983390D02*
X153711904Y-91031009D01*
X153711904Y-91031009D02*
X153807142Y-91078628D01*
X153807142Y-91078628D02*
X154188094Y-91078628D01*
X152664285Y-91554819D02*
X153235713Y-91554819D01*
X152949999Y-91554819D02*
X152949999Y-90554819D01*
X152949999Y-90554819D02*
X153045237Y-90697676D01*
X153045237Y-90697676D02*
X153140475Y-90792914D01*
X153140475Y-90792914D02*
X153235713Y-90840533D01*
X154116666Y-103504819D02*
X154449999Y-103028628D01*
X154688094Y-103504819D02*
X154688094Y-102504819D01*
X154688094Y-102504819D02*
X154307142Y-102504819D01*
X154307142Y-102504819D02*
X154211904Y-102552438D01*
X154211904Y-102552438D02*
X154164285Y-102600057D01*
X154164285Y-102600057D02*
X154116666Y-102695295D01*
X154116666Y-102695295D02*
X154116666Y-102838152D01*
X154116666Y-102838152D02*
X154164285Y-102933390D01*
X154164285Y-102933390D02*
X154211904Y-102981009D01*
X154211904Y-102981009D02*
X154307142Y-103028628D01*
X154307142Y-103028628D02*
X154688094Y-103028628D01*
X153735713Y-102600057D02*
X153688094Y-102552438D01*
X153688094Y-102552438D02*
X153592856Y-102504819D01*
X153592856Y-102504819D02*
X153354761Y-102504819D01*
X153354761Y-102504819D02*
X153259523Y-102552438D01*
X153259523Y-102552438D02*
X153211904Y-102600057D01*
X153211904Y-102600057D02*
X153164285Y-102695295D01*
X153164285Y-102695295D02*
X153164285Y-102790533D01*
X153164285Y-102790533D02*
X153211904Y-102933390D01*
X153211904Y-102933390D02*
X153783332Y-103504819D01*
X153783332Y-103504819D02*
X153164285Y-103504819D01*
X150033333Y-87704819D02*
X150033333Y-88419104D01*
X150033333Y-88419104D02*
X150080952Y-88561961D01*
X150080952Y-88561961D02*
X150176190Y-88657200D01*
X150176190Y-88657200D02*
X150319047Y-88704819D01*
X150319047Y-88704819D02*
X150414285Y-88704819D01*
X149557142Y-88704819D02*
X149557142Y-87704819D01*
X149557142Y-87704819D02*
X149176190Y-87704819D01*
X149176190Y-87704819D02*
X149080952Y-87752438D01*
X149080952Y-87752438D02*
X149033333Y-87800057D01*
X149033333Y-87800057D02*
X148985714Y-87895295D01*
X148985714Y-87895295D02*
X148985714Y-88038152D01*
X148985714Y-88038152D02*
X149033333Y-88133390D01*
X149033333Y-88133390D02*
X149080952Y-88181009D01*
X149080952Y-88181009D02*
X149176190Y-88228628D01*
X149176190Y-88228628D02*
X149557142Y-88228628D01*
X148033333Y-88704819D02*
X148604761Y-88704819D01*
X148319047Y-88704819D02*
X148319047Y-87704819D01*
X148319047Y-87704819D02*
X148414285Y-87847676D01*
X148414285Y-87847676D02*
X148509523Y-87942914D01*
X148509523Y-87942914D02*
X148604761Y-87990533D01*
X153283333Y-104704819D02*
X153283333Y-105419104D01*
X153283333Y-105419104D02*
X153330952Y-105561961D01*
X153330952Y-105561961D02*
X153426190Y-105657200D01*
X153426190Y-105657200D02*
X153569047Y-105704819D01*
X153569047Y-105704819D02*
X153664285Y-105704819D01*
X152807142Y-105704819D02*
X152807142Y-104704819D01*
X152807142Y-104704819D02*
X152426190Y-104704819D01*
X152426190Y-104704819D02*
X152330952Y-104752438D01*
X152330952Y-104752438D02*
X152283333Y-104800057D01*
X152283333Y-104800057D02*
X152235714Y-104895295D01*
X152235714Y-104895295D02*
X152235714Y-105038152D01*
X152235714Y-105038152D02*
X152283333Y-105133390D01*
X152283333Y-105133390D02*
X152330952Y-105181009D01*
X152330952Y-105181009D02*
X152426190Y-105228628D01*
X152426190Y-105228628D02*
X152807142Y-105228628D01*
X151854761Y-104800057D02*
X151807142Y-104752438D01*
X151807142Y-104752438D02*
X151711904Y-104704819D01*
X151711904Y-104704819D02*
X151473809Y-104704819D01*
X151473809Y-104704819D02*
X151378571Y-104752438D01*
X151378571Y-104752438D02*
X151330952Y-104800057D01*
X151330952Y-104800057D02*
X151283333Y-104895295D01*
X151283333Y-104895295D02*
X151283333Y-104990533D01*
X151283333Y-104990533D02*
X151330952Y-105133390D01*
X151330952Y-105133390D02*
X151902380Y-105704819D01*
X151902380Y-105704819D02*
X151283333Y-105704819D01*
%TO.C,R1*%
X150450000Y-92025000D02*
X152450000Y-92025000D01*
X152450000Y-94175000D02*
X150450000Y-94175000D01*
%TO.C,R2*%
X148750000Y-102025000D02*
X150750000Y-102025000D01*
X150750000Y-104175000D02*
X148750000Y-104175000D01*
D11*
%TO.C,JP1*%
X147150000Y-90350000D02*
X147150000Y-89750000D01*
X147800000Y-89050000D02*
X150600000Y-89050000D01*
X150100000Y-91550000D02*
X150400000Y-91250000D01*
X150100000Y-91550000D02*
X150700000Y-91550000D01*
X150600000Y-91050000D02*
X147800000Y-91050000D01*
X150700000Y-91550000D02*
X150400000Y-91250000D01*
X151250000Y-89750000D02*
X151250000Y-90350000D01*
X147150000Y-89750000D02*
G75*
G02*
X147850000Y-89050000I700000J0D01*
G01*
X147850000Y-91050000D02*
G75*
G02*
X147150000Y-90350000I0J700000D01*
G01*
X150550000Y-89050000D02*
G75*
G02*
X151250000Y-89750000I1J-699999D01*
G01*
X151250000Y-90350000D02*
G75*
G02*
X150550000Y-91050000I-699999J-1D01*
G01*
%TO.C,JP2*%
X146650000Y-106150000D02*
X146650000Y-105550000D01*
X147300000Y-104850000D02*
X150100000Y-104850000D01*
X149600000Y-107350000D02*
X149900000Y-107050000D01*
X149600000Y-107350000D02*
X150200000Y-107350000D01*
X150100000Y-106850000D02*
X147300000Y-106850000D01*
X150200000Y-107350000D02*
X149900000Y-107050000D01*
X150750000Y-105550000D02*
X150750000Y-106150000D01*
X146650000Y-105550000D02*
G75*
G02*
X147350000Y-104850000I700000J0D01*
G01*
X147350000Y-106850000D02*
G75*
G02*
X146650000Y-106150000I0J700000D01*
G01*
X150050000Y-104850000D02*
G75*
G02*
X150750000Y-105550000I1J-699999D01*
G01*
X150750000Y-106150000D02*
G75*
G02*
X150050000Y-106850000I-699999J-1D01*
G01*
%TD*%
M02*
