%TF.GenerationSoftware,KiCad,Pcbnew,8.0.5*%
%TF.CreationDate,2024-09-21T22:48:15-06:00*%
%TF.ProjectId,KiCad_MiniBadge_Learning,4b694361-645f-44d6-996e-694261646765,rev?*%
%TF.SameCoordinates,Original*%
%TF.FileFunction,Legend,Top*%
%TF.FilePolarity,Positive*%
%FSLAX46Y46*%
G04 Gerber Fmt 4.6, Leading zero omitted, Abs format (unit mm)*
G04 Created by KiCad (PCBNEW 8.0.5) date 2024-09-21 22:48:15*
%MOMM*%
%LPD*%
G01*
G04 APERTURE LIST*
%ADD10C,0.150000*%
%ADD11C,0.120000*%
%ADD12C,0.000000*%
G04 APERTURE END LIST*
D10*
X140338095Y-85519819D02*
X140338095Y-86329342D01*
X140338095Y-86329342D02*
X140385714Y-86424580D01*
X140385714Y-86424580D02*
X140433333Y-86472200D01*
X140433333Y-86472200D02*
X140528571Y-86519819D01*
X140528571Y-86519819D02*
X140719047Y-86519819D01*
X140719047Y-86519819D02*
X140814285Y-86472200D01*
X140814285Y-86472200D02*
X140861904Y-86424580D01*
X140861904Y-86424580D02*
X140909523Y-86329342D01*
X140909523Y-86329342D02*
X140909523Y-85519819D01*
X141909523Y-86519819D02*
X141338095Y-86519819D01*
X141623809Y-86519819D02*
X141623809Y-85519819D01*
X141623809Y-85519819D02*
X141528571Y-85662676D01*
X141528571Y-85662676D02*
X141433333Y-85757914D01*
X141433333Y-85757914D02*
X141338095Y-85805533D01*
X142366908Y-104764818D02*
X142366908Y-103764818D01*
X142366908Y-103764818D02*
X142605003Y-103764818D01*
X142605003Y-103764818D02*
X142747860Y-103812437D01*
X142747860Y-103812437D02*
X142843098Y-103907675D01*
X142843098Y-103907675D02*
X142890717Y-104002913D01*
X142890717Y-104002913D02*
X142938336Y-104193389D01*
X142938336Y-104193389D02*
X142938336Y-104336246D01*
X142938336Y-104336246D02*
X142890717Y-104526722D01*
X142890717Y-104526722D02*
X142843098Y-104621960D01*
X142843098Y-104621960D02*
X142747860Y-104717199D01*
X142747860Y-104717199D02*
X142605003Y-104764818D01*
X142605003Y-104764818D02*
X142366908Y-104764818D01*
X143319289Y-103860056D02*
X143366908Y-103812437D01*
X143366908Y-103812437D02*
X143462146Y-103764818D01*
X143462146Y-103764818D02*
X143700241Y-103764818D01*
X143700241Y-103764818D02*
X143795479Y-103812437D01*
X143795479Y-103812437D02*
X143843098Y-103860056D01*
X143843098Y-103860056D02*
X143890717Y-103955294D01*
X143890717Y-103955294D02*
X143890717Y-104050532D01*
X143890717Y-104050532D02*
X143843098Y-104193389D01*
X143843098Y-104193389D02*
X143271670Y-104764818D01*
X143271670Y-104764818D02*
X143890717Y-104764818D01*
X158954819Y-100038094D02*
X157954819Y-100038094D01*
X157954819Y-100038094D02*
X157954819Y-99799999D01*
X157954819Y-99799999D02*
X158002438Y-99657142D01*
X158002438Y-99657142D02*
X158097676Y-99561904D01*
X158097676Y-99561904D02*
X158192914Y-99514285D01*
X158192914Y-99514285D02*
X158383390Y-99466666D01*
X158383390Y-99466666D02*
X158526247Y-99466666D01*
X158526247Y-99466666D02*
X158716723Y-99514285D01*
X158716723Y-99514285D02*
X158811961Y-99561904D01*
X158811961Y-99561904D02*
X158907200Y-99657142D01*
X158907200Y-99657142D02*
X158954819Y-99799999D01*
X158954819Y-99799999D02*
X158954819Y-100038094D01*
X158954819Y-98514285D02*
X158954819Y-99085713D01*
X158954819Y-98799999D02*
X157954819Y-98799999D01*
X157954819Y-98799999D02*
X158097676Y-98895237D01*
X158097676Y-98895237D02*
X158192914Y-98990475D01*
X158192914Y-98990475D02*
X158240533Y-99085713D01*
D11*
%TO.C,D2*%
X144665001Y-100270001D02*
X144664999Y-100114001D01*
X144665003Y-102586001D02*
X144665001Y-102430001D01*
X141432667Y-100271395D02*
G75*
G02*
X144665001Y-100114485I1672335J-1078609D01*
G01*
X142063871Y-100270164D02*
G75*
G02*
X144145962Y-100270001I1041130J-1079837D01*
G01*
X144145963Y-102430001D02*
G75*
G02*
X142063870Y-102429839I-1040962J1080000D01*
G01*
X144665001Y-102585517D02*
G75*
G02*
X141432666Y-102428609I-1560000J1235516D01*
G01*
%TO.C,D1*%
X156715000Y-94250000D02*
X156715000Y-98309999D01*
X156715000Y-98309999D02*
X158985000Y-98310000D01*
X158985000Y-98310000D02*
X158984998Y-94249999D01*
D12*
%TO.C,G\u002A\u002A\u002A*%
G36*
X149287785Y-93751537D02*
G01*
X149501029Y-93831743D01*
X150015835Y-94037728D01*
X149751538Y-94408899D01*
X149542790Y-94650797D01*
X149365526Y-94698123D01*
X149247761Y-94651904D01*
X148784109Y-94514055D01*
X148387355Y-94610527D01*
X148083809Y-94922303D01*
X147899781Y-95430371D01*
X147868712Y-95648575D01*
X147881043Y-96288507D01*
X148034279Y-96799662D01*
X148302529Y-97153244D01*
X148659897Y-97320459D01*
X149080492Y-97272511D01*
X149254817Y-97189993D01*
X149500000Y-97071528D01*
X149648662Y-97116143D01*
X149807229Y-97349993D01*
X149952637Y-97613114D01*
X150017458Y-97763956D01*
X150017677Y-97767109D01*
X149905037Y-97865561D01*
X149623447Y-97980406D01*
X149257399Y-98088130D01*
X148891383Y-98165217D01*
X148609892Y-98188151D01*
X148542424Y-98177701D01*
X148327496Y-98121900D01*
X148078368Y-98064560D01*
X147643680Y-97853055D01*
X147242969Y-97452598D01*
X146932503Y-96929832D01*
X146806193Y-96557868D01*
X146721223Y-95762077D01*
X146852353Y-95045316D01*
X147185718Y-94441941D01*
X147707457Y-93986303D01*
X147882208Y-93891426D01*
X148389328Y-93688116D01*
X148817881Y-93642961D01*
X149287785Y-93751537D01*
G37*
G36*
X155752737Y-93497241D02*
G01*
X156292343Y-93497475D01*
X156330010Y-95799163D01*
X156367677Y-98100850D01*
X155165647Y-98098232D01*
X154594590Y-98091924D01*
X154218331Y-98067080D01*
X153975154Y-98010318D01*
X153803341Y-97908257D01*
X153664350Y-97772698D01*
X153410674Y-97339167D01*
X153283957Y-96780019D01*
X153283258Y-96462007D01*
X154379293Y-96462007D01*
X154409373Y-96948174D01*
X154514753Y-97222433D01*
X154718145Y-97323993D01*
X154876741Y-97320829D01*
X155062480Y-97281372D01*
X155167782Y-97175922D01*
X155220821Y-96941982D01*
X155249772Y-96517058D01*
X155251051Y-96490552D01*
X155263431Y-96050476D01*
X155234847Y-95799768D01*
X155146762Y-95672213D01*
X155004260Y-95608922D01*
X154704213Y-95621107D01*
X154491758Y-95853501D01*
X154386888Y-96278812D01*
X154379293Y-96462007D01*
X153283258Y-96462007D01*
X153282636Y-96179091D01*
X153405152Y-95620219D01*
X153649943Y-95187241D01*
X153713684Y-95122906D01*
X154102021Y-94902383D01*
X154563874Y-94817078D01*
X154977288Y-94887233D01*
X155016979Y-94906591D01*
X155172559Y-94978694D01*
X155253327Y-94949872D01*
X155277628Y-94772095D01*
X155263809Y-94397333D01*
X155257146Y-94277844D01*
X155213131Y-93497008D01*
X155752737Y-93497241D01*
G37*
G36*
X152346790Y-94980599D02*
G01*
X152690336Y-95265875D01*
X152737522Y-95341841D01*
X152806198Y-95583768D01*
X152871272Y-96010294D01*
X152923076Y-96549525D01*
X152942195Y-96863641D01*
X153002484Y-98115657D01*
X152472201Y-98115657D01*
X152110180Y-98081166D01*
X151946791Y-97986425D01*
X151941919Y-97961718D01*
X151904055Y-97872468D01*
X151787980Y-97961718D01*
X151569908Y-98058478D01*
X151213704Y-98111945D01*
X151091735Y-98115657D01*
X150688030Y-98076282D01*
X150417811Y-97926008D01*
X150283553Y-97777650D01*
X150039617Y-97313994D01*
X150032834Y-97053574D01*
X151052651Y-97053574D01*
X151099534Y-97276679D01*
X151191671Y-97360695D01*
X151353254Y-97455801D01*
X151475460Y-97447795D01*
X151610720Y-97396377D01*
X151766915Y-97221768D01*
X151813636Y-97003007D01*
X151774357Y-96778001D01*
X151604144Y-96717663D01*
X151461955Y-96728096D01*
X151185370Y-96842831D01*
X151052651Y-97053574D01*
X150032834Y-97053574D01*
X150028301Y-96879540D01*
X150225662Y-96504689D01*
X150607756Y-96219841D01*
X151150641Y-96055394D01*
X151660165Y-96029816D01*
X151781963Y-95936516D01*
X151785202Y-95825530D01*
X151678767Y-95682241D01*
X151399920Y-95620446D01*
X151192888Y-95614142D01*
X150783186Y-95574679D01*
X150553816Y-95440857D01*
X150507725Y-95374370D01*
X150451048Y-95164219D01*
X150576431Y-95012137D01*
X150911715Y-94898369D01*
X151270202Y-94833357D01*
X151850942Y-94828640D01*
X152346790Y-94980599D01*
G37*
G36*
X144435430Y-92952725D02*
G01*
X144689343Y-92978194D01*
X144830226Y-93022675D01*
X144893946Y-93089407D01*
X144913876Y-93163667D01*
X145054549Y-93461358D01*
X145306352Y-93593212D01*
X145585979Y-93560784D01*
X145810125Y-93365632D01*
X145887660Y-93145464D01*
X145987994Y-92951001D01*
X146176297Y-92949032D01*
X146257083Y-92982038D01*
X146318268Y-93054506D01*
X146362566Y-93198387D01*
X146392690Y-93445633D01*
X146411355Y-93828194D01*
X146421275Y-94378023D01*
X146425164Y-95127071D01*
X146425757Y-95885669D01*
X146425757Y-98757071D01*
X143411111Y-98757071D01*
X140396465Y-98757071D01*
X140396465Y-98115657D01*
X140845454Y-98115657D01*
X141448677Y-98115657D01*
X142051899Y-98115657D01*
X142090091Y-97313889D01*
X142128283Y-96512122D01*
X142641414Y-97306754D01*
X143154545Y-98101387D01*
X143826279Y-98108522D01*
X144498014Y-98115657D01*
X144822222Y-98115657D01*
X145445290Y-98115657D01*
X145817709Y-98101876D01*
X145985153Y-98047952D01*
X145998330Y-97935012D01*
X145990492Y-97912741D01*
X145958620Y-97706241D01*
X145933057Y-97305689D01*
X145916838Y-96773580D01*
X145912626Y-96309205D01*
X145912626Y-94908586D01*
X145367424Y-94908586D01*
X144822222Y-94908586D01*
X144822222Y-96512122D01*
X144822222Y-98115657D01*
X144498014Y-98115657D01*
X143652107Y-96958802D01*
X143325489Y-96512122D01*
X142806201Y-95801947D01*
X143327669Y-95130772D01*
X143658945Y-94715941D01*
X143982717Y-94329152D01*
X144180517Y-94106819D01*
X144511898Y-93754041D01*
X143833222Y-93758908D01*
X143472924Y-93769128D01*
X143232526Y-93824240D01*
X143037286Y-93970503D01*
X142812465Y-94254174D01*
X142641414Y-94496534D01*
X142128283Y-95229293D01*
X142089810Y-94491667D01*
X142051338Y-93754041D01*
X141448396Y-93754041D01*
X140845454Y-93754041D01*
X140845454Y-95934849D01*
X140845454Y-98115657D01*
X140396465Y-98115657D01*
X140396465Y-95934849D01*
X140396465Y-95876427D01*
X140396465Y-92995784D01*
X142636856Y-92957993D01*
X143445053Y-92945865D01*
X144032623Y-92943029D01*
X144435430Y-92952725D01*
G37*
%TD*%
M02*
